<svg
   version="1.1"
   id="svg1"
   width="102"
   viewBox="0 0 331.741 287.77673"
   xmlns="http://www.w3.org/2000/svg"
   xmlns:svg="http://www.w3.org/2000/svg">
  <defs
     id="defs1" />
  <g
     id="g1"
     transform="translate(-22.452824,-11.125692)">
    <path
       style="fill:#000000;stroke-width:0.477325"
       d="m 281.52228,298.12195 c -0.72134,-0.45804 -3.37154,-3.30297 -5.88933,-6.32205 -2.5178,-3.01909 -4.77366,-5.56084 -5.01303,-5.64835 -0.24598,-0.0899 -0.43523,2.21291 -0.43523,5.29593 0,6.04902 -0.43273,7.03497 -3.08758,7.03497 -2.46103,0 -2.60859,-0.70016 -2.62515,-12.4558 -0.0138,-9.85361 0.0602,-10.85341 0.85773,-11.57515 2.02377,-1.83148 2.98879,-1.17104 8.98804,6.15127 2.14192,2.61428 4.45098,5.27397 5.13126,5.91043 l 1.23686,1.15718 v -6.27743 c 0,-6.24297 0.007,-6.28192 1.24831,-7.09536 1.10941,-0.72691 1.38493,-0.74125 2.476,-0.12884 1.81346,1.01786 2.07432,2.85067 1.9116,13.43112 -0.14401,9.36381 -0.1671,9.55329 -1.27353,10.44833 -1.38613,1.12132 -1.86057,1.13125 -3.52595,0.0738 z M 65.200504,297.4216 c -0.61681,-0.88063 -0.74305,-2.81156 -0.74305,-11.3658 0,-9.7108 0.0561,-10.36518 0.97324,-11.34961 1.90358,-2.04324 3.62897,-1.14669 6.98512,3.62961 1.23731,1.76088 2.8788,4.01736 3.64773,5.0144 l 1.39807,1.8128 4.03504,-5.51199 c 4.09971,-5.60037 5.54365,-6.72525 7.25894,-5.65491 1.77826,1.10962 1.97256,2.46907 1.84246,12.89145 -0.1184,9.48506 -0.18656,10.16883 -1.08102,10.84397 -1.30725,0.98672 -3.26992,0.93001 -4.22195,-0.12197 -0.63583,-0.7026 -0.78997,-1.91329 -0.78997,-6.20523 0,-5.23461 -0.36746,-6.36674 -1.42508,-4.39056 -0.92593,1.73012 -5.28456,6.69544 -5.87735,6.69544 -0.3218,0 -1.87124,-1.71455 -3.44321,-3.8101 -1.57197,-2.09556 -3.01922,-3.81393 -3.21613,-3.8186 -0.19689,-0.005 -0.35799,2.42837 -0.35799,5.40675 0,4.64002 -0.12496,5.52836 -0.8729,6.20524 -1.24587,1.1275 -3.22373,0.9972 -4.11195,-0.27089 z m 41.022916,-0.0768 c -4.32625,-2.04523 -6.891526,-6.03201 -6.910736,-10.74014 -0.0148,-3.62657 0.821136,-5.98644 2.995616,-8.45678 3.37413,-3.83321 7.7254,-5.185 12.34152,-3.83408 3.23296,0.94613 5.55964,2.87072 7.27041,6.01397 2.89863,5.32574 1.93385,10.9117 -2.58658,14.97595 -3.75476,3.37586 -8.66858,4.14087 -13.11023,2.04108 z m 9.16145,-6.10248 c 3.81236,-3.56079 3.08694,-8.66604 -1.55035,-10.91092 -1.93134,-0.93494 -2.43412,-0.99957 -4.03806,-0.51901 -1.97018,0.59028 -4.10932,2.75206 -4.58036,4.62885 -0.71845,2.86249 1.05216,6.40285 3.83079,7.65972 1.98701,0.8988 4.87532,0.50751 6.33798,-0.85864 z m 22.04669,5.90674 c -1.59097,-0.83113 -3.09475,-2.10437 -3.99244,-3.38038 -1.43157,-2.03487 -1.44104,-2.09117 -1.59406,-9.47481 -0.0847,-4.08527 -0.0323,-7.91255 0.11645,-8.50506 0.15895,-0.63326 0.85241,-1.28017 1.68251,-1.56955 1.16997,-0.40785 1.62065,-0.32824 2.62817,0.46427 1.19989,0.94384 1.21605,1.04547 1.21605,7.65014 0,7.52772 0.42183,8.87806 3.18263,10.18815 2.58937,1.22874 5.8857,-0.0955 6.80548,-2.734 0.28217,-0.80943 0.51304,-4.43924 0.51304,-8.06623 0,-6.34518 0.0406,-6.61692 1.07398,-7.18646 1.42687,-0.78642 2.79735,-0.55674 3.81861,0.63994 0.70929,0.83114 0.83532,1.98864 0.83532,7.67243 0,8.00718 -0.48229,9.93018 -3.16398,12.61584 -3.35874,3.3637 -8.61673,4.03918 -13.12176,1.68572 z m 26.5753,0.27249 c -0.6172,-0.88118 -0.74305,-2.81834 -0.74305,-11.43721 0,-10.05968 0.0319,-10.40607 1.04465,-11.34961 2.02677,-1.88822 3.42312,-1.11894 7.64172,4.20997 2.97251,3.75486 6.93489,8.1819 7.32315,8.1819 0.12075,0 0.21954,-2.67278 0.21954,-5.9395 0,-5.59662 0.0612,-5.9824 1.06086,-6.68256 1.42781,-1.00008 2.56557,-0.93523 3.71239,0.2116 0.8962,0.8962 0.95465,1.59108 0.95465,11.3496 0,11.74657 -0.18881,12.51666 -3.06889,12.51666 -1.75782,0 -2.43378,-0.64858 -8.86425,-8.50538 -1.96896,-2.4057 -3.74103,-4.37588 -3.93793,-4.3782 -0.19689,-0.002 -0.35799,2.6732 -0.35799,5.94557 0,5.39385 -0.0863,5.99595 -0.92328,6.4439 -1.52748,0.81748 -3.2615,0.57553 -4.06157,-0.56674 z m 37.27829,0.18795 c -0.67234,-0.74293 -0.78996,-2.12888 -0.78996,-9.30784 v -8.43494 h -2.75775 c -3.32433,0 -4.87946,-0.89782 -4.87946,-2.81704 0,-2.68121 0.83819,-2.91086 10.62398,-2.91086 9.63214,0 10.37833,0.1912 10.37833,2.65937 0,2.06714 -1.55771,3.06853 -4.77325,3.06853 h -2.86395 v 8.51787 c 0,7.64579 -0.0894,8.59876 -0.8729,9.30785 -1.15283,1.04329 -3.08143,1.00394 -4.06504,-0.0829 z m 16.66651,0.12282 c -0.41255,-0.41254 -0.75008,-1.03431 -0.75008,-1.38171 0,-0.97047 9.96902,-21.88156 10.63269,-22.30319 1.19639,-0.76009 2.681,-0.34618 3.88329,1.08267 0.67967,0.80773 1.23575,1.66104 1.23575,1.89625 0,0.23521 1.93317,4.54412 4.29593,9.57534 2.36276,5.03123 4.29592,9.40715 4.29592,9.72425 0,1.22993 -1.78909,2.25873 -3.33679,1.9188 -1.15148,-0.25291 -1.72468,-0.80736 -2.51379,-2.43159 l -1.0222,-2.10399 h -5.14321 -5.1432 l -0.78581,1.55131 c -0.43219,0.85322 -1.11539,1.92721 -1.51821,2.38663 -0.91051,1.03844 -3.13126,1.08427 -4.13029,0.0852 z m 14.047,-9.48095 c 0,-0.11396 -0.58308,-1.55166 -1.29574,-3.1949 l -1.29572,-2.98771 -1.30606,2.83692 c -0.71832,1.5603 -1.31663,2.998 -1.32955,3.1949 -0.0129,0.1969 1.15787,0.358 2.60178,0.358 1.44391,0 2.62529,-0.0933 2.62529,-0.20721 z m 17.9338,9.48095 c -0.63693,-0.63692 -0.75008,-2.35158 -0.75008,-11.3658 0,-9.92118 0.0618,-10.68211 0.94536,-11.63046 1.15194,-1.23645 3.19095,-1.04047 4.42455,0.42529 0.73682,0.8755 0.83532,2.16059 0.83532,10.8991 0,9.29946 -0.0606,9.98366 -0.9893,11.16427 -1.13806,1.44682 -3.28286,1.6906 -4.46585,0.5076 z m 49.4242,0.0335 c -2.19334,-0.68399 -5.3057,-3.28821 -5.3057,-4.43945 0,-0.37003 0.5036,-1.27126 1.11909,-2.00274 l 1.11909,-1.32997 2.03851,1.36908 c 3.36501,2.25997 7.01395,2.39931 8.32055,0.31772 0.895,-1.42586 -0.22368,-2.46224 -3.10258,-2.87431 -5.68749,-0.81409 -9.30299,-3.99722 -8.88437,-7.82191 0.39141,-3.57607 3.29287,-6.28081 7.60552,-7.08987 2.35484,-0.44177 6.68654,0.87627 8.62087,2.62315 l 1.54035,1.39107 -1.71172,1.72815 -1.71172,1.72815 -2.04772,-1.06734 c -3.24262,-1.69015 -6.22332,-1.19072 -6.22332,1.04273 0,1.08371 1.02768,1.65132 3.81861,2.10913 7.9773,1.30855 10.95962,7.31159 6.05884,12.1957 -2.83319,2.82356 -6.67757,3.54798 -11.2543,2.12072 z M 28.351974,286.76396 c -0.94574,-0.94574 -1.14743,-1.50483 -0.90402,-2.50596 0.65924,-2.71133 1.53057,-2.93701 11.38464,-2.94865 8.75082,-0.0104 10.49853,0.23645 11.41712,1.61215 0.70035,1.04889 0.34024,3.00763 -0.73944,4.02194 -1.05722,0.9932 -1.51001,1.03786 -10.52286,1.03786 h -9.41811 z m 298.374076,0.0457 c -1.51299,-1.51299 -1.48421,-2.88019 0.0914,-4.34041 1.25407,-1.16224 1.3313,-1.17052 10.91411,-1.17052 9.041,0 9.73061,0.0625 10.90878,0.98929 0.83398,0.656 1.25769,1.44837 1.25769,2.35197 0,0.90361 -0.42371,1.69598 -1.25769,2.35199 -1.17905,0.92745 -1.86672,0.98929 -11.00017,0.98929 -9.70745,0 -9.74672,-0.004 -10.91412,-1.17162 z M 25.495104,260.29641 c -0.55825,-0.2216 -1.47113,-1.04349 -2.02863,-1.82644 -0.99205,-1.39319 -1.01365,-1.82403 -1.01365,-20.21732 0,-16.92612 0.0808,-18.91108 0.81341,-19.97398 1.36164,-1.97561 2.166,-2.38926 4.15752,-2.13803 2.18654,0.27584 2.98163,0.91806 5.91338,4.77644 1.19688,1.57517 5.09075,6.50472 8.65303,10.95454 l 6.47689,8.09059 0.23866,-10.47722 c 0.21688,-9.52076 0.32582,-10.59325 1.19332,-11.74842 0.90039,-1.19897 2.50339,-1.83141 4.64198,-1.83141 0.5185,0 1.67303,0.73031 2.56562,1.62291 l 1.62291,1.62291 v 18.63235 c 0,10.94884 -0.19193,19.13716 -0.46542,19.85651 -0.62521,1.64443 -2.98196,3.02306 -4.72943,2.76658 -1.81827,-0.26686 -3.06175,-1.59838 -12.45653,-13.33831 -4.33704,-5.41966 -8.15402,-9.94084 -8.48218,-10.04706 -0.4651,-0.15054 -0.59666,2.12346 -0.59666,10.31372 0,8.93373 -0.11277,10.61961 -0.7532,11.26005 -1.6817,1.68169 -4.0419,2.38002 -5.75102,1.70159 z m 57.88854,-0.0234 c -5.02157,-0.84259 -10.97823,-5.05312 -14.15726,-10.00721 -5.78761,-9.01921 -4.0218,-21.11868 4.18104,-28.64877 3.24066,-2.97489 6.68504,-4.62178 10.90186,-5.21261 11.03469,-1.54611 20.900716,5.30164 23.827406,16.53801 3.15745,12.12225 -5.02648,25.00236 -17.374226,27.34405 -2.88557,0.54724 -4.04978,0.54512 -7.37882,-0.0135 z m 8.58663,-10.72348 c 2.65186,-1.09041 5.30485,-3.92064 6.40412,-6.83196 3.623946,-9.59776 -5.28186,-19.242 -14.83775,-16.06805 -8.03428,2.66857 -10.76493,13.17213 -5.09808,19.61001 3.64071,4.13606 8.56336,5.33293 13.53171,3.29 z m 26.610206,10.77858 c -0.55444,-0.23624 -1.46732,-1.01338 -2.02864,-1.72698 -1.00323,-1.27541 -1.02057,-1.6163 -1.02057,-20.05638 0,-10.72201 0.1947,-19.27103 0.45447,-19.95426 0.80867,-2.12695 2.00451,-2.3791 10.70852,-2.25802 10.13257,0.14096 12.02859,0.72398 16.32557,5.0201 2.17988,2.17944 3.12552,3.56192 3.78332,5.53101 1.21643,3.64132 1.13343,7.7808 -0.21251,10.59872 -1.03377,2.16436 -4.74646,6.10767 -5.75047,6.10767 -1.06328,0 -0.32243,1.42791 3.56928,6.8793 2.2315,3.12581 4.05726,5.98778 4.05726,6.35993 0,0.37216 -0.62786,1.30451 -1.39525,2.0719 -1.15848,1.15848 -1.78805,1.39526 -3.70985,1.39526 -3.30109,0 -4.95154,-1.56913 -9.22409,-8.76965 l -3.5705,-6.01737 -2.74463,-0.005 -2.74462,-0.005 v 6.17862 c 0,5.72299 -0.0792,6.26976 -1.07398,7.41466 -1.17549,1.35286 -3.76398,1.94258 -5.42331,1.23555 z m 17.2472,-23.57396 c 2.06957,-2.06958 2.52718,-4.41753 1.42396,-7.30627 -1.19937,-3.1405 -2.84525,-3.99225 -7.71883,-3.99447 -2.14398,-0.001 -3.96975,0.2091 -4.05727,0.46686 -0.0875,0.25776 -0.0931,3.1575 -0.0125,6.44389 l 0.14662,5.97523 h 4.31637 c 4.2523,0 4.33993,-0.0235 5.90165,-1.58526 z m 30.7148,22.59839 -1.36938,-1.36937 v -16.26576 -16.26578 h -5.42486 c -4.74046,0 -5.58131,-0.12305 -6.66481,-0.97533 -1.5955,-1.25503 -2.07808,-3.69355 -1.10379,-5.57761 1.39125,-2.6904 2.02674,-2.7788 18.08866,-2.51624 l 14.60011,0.23866 1.23083,1.15718 c 1.7595,1.65423 1.74364,4.85704 -0.0322,6.50282 -1.16901,1.0834 -1.62534,1.17052 -6.13098,1.17052 h -4.86797 l -0.31117,6.80189 c -0.17114,3.74104 -0.31195,11.05387 -0.31291,16.25076 -0.002,9.39463 -0.008,9.4556 -1.17336,10.62049 -0.64439,0.64439 -1.44988,1.18641 -1.78998,1.2045 -0.34009,0.0181 -1.23721,0.11384 -1.9936,0.21278 -1.0252,0.1341 -1.7238,-0.16867 -2.74462,-1.18948 z m 30.61898,0.93239 c -0.91471,-0.21508 -2.15887,-0.96741 -2.7648,-1.67186 l -1.10172,-1.28081 0.13952,-19.32121 0.1395,-19.3212 1.59573,-1.42533 c 1.25285,-1.11907 1.9195,-1.37788 3.10262,-1.20452 2.2776,0.33376 2.9143,0.7026 3.79944,2.20101 0.66553,1.12665 0.81006,2.65696 0.81006,8.57689 v 7.20556 h 8.08168 8.0817 l 0.15217,-7.60723 0.15218,-7.60722 1.37323,-1.43198 c 1.15107,-1.20032 1.69162,-1.41195 3.34128,-1.30815 2.5681,0.16159 3.85328,0.89353 4.55854,2.5962 0.85309,2.05953 0.52445,38.06823 -0.36163,39.62306 -0.73524,1.29017 -3.34396,2.51773 -4.76779,2.24352 -3.51956,-0.67781 -4.06691,-1.97191 -4.29717,-10.1598 l -0.19128,-6.80187 h -8.02707 -8.02706 l -0.15372,7.20022 -0.15372,7.20022 -1.55885,1.39164 c -0.85735,0.7654 -1.71654,1.36966 -1.90929,1.34278 -0.19276,-0.0269 -1.09886,-0.22483 -2.01355,-0.4399 z m 83.53518,0.13767 c -0.6504,-0.1216 -1.67068,-0.7478 -2.2673,-1.39156 -1.07668,-1.16176 -1.08566,-1.28691 -1.2041,-16.7783 -0.19343,-25.29908 -0.28788,-23.29344 1.16541,-24.74673 l 1.2607,-1.2607 8.27379,0.0934 c 9.47608,0.10697 9.70612,0.14278 13.42184,2.08931 6.96114,3.64669 10.09942,12.01025 7.06694,18.83341 -1.03068,2.31906 -3.47627,5.05379 -5.56455,6.22245 -1.17223,0.65601 -0.7812,1.44771 3.79572,7.68483 1.99922,2.7244 3.63493,5.26237 3.63493,5.63996 0,2.28004 -3.12842,4.22731 -5.94312,3.69927 -2.54892,-0.47818 -4.42033,-2.45993 -8.326,-8.81693 l -3.65751,-5.95306 -2.73116,-0.14316 -2.73115,-0.14315 v 5.72927 c 0,3.2677 -0.2335,6.24174 -0.54346,6.92204 -0.49791,1.09278 -3.09849,2.76052 -4.06327,2.60575 -0.22285,-0.0358 -0.93732,-0.1645 -1.58771,-0.28609 z m 16.4504,-23.118 c 1.41645,-1.11418 2.63182,-3.53542 2.63182,-5.24307 0,-1.87475 -1.84913,-4.99584 -3.46899,-5.85514 -1.17594,-0.62382 -2.45116,-0.78254 -5.36152,-0.66731 l -3.81861,0.15119 -0.13319,6.32456 -0.13318,6.32456 h 4.48407 c 3.87707,0 4.66216,-0.14007 5.7996,-1.03479 z m 23.20936,22.79265 c -2.3696,-1.29192 -2.40417,-1.60104 -2.42225,-21.66223 -0.0182,-20.16808 0.0485,-20.76503 2.44832,-21.89545 1.42507,-0.6713 3.17143,-0.71688 4.30117,-0.11226 0.48747,0.26088 2.53201,2.55917 4.54344,5.10731 8.3694,10.60265 14.54057,18.22667 14.96633,18.48981 0.28206,0.17432 0.45405,-3.81193 0.45405,-10.5241 v -10.80472 l 1.3899,-1.3899 c 1.20046,-1.20046 1.67157,-1.36277 3.45644,-1.19085 1.56085,0.15034 2.38877,0.55968 3.38335,1.67281 l 1.31681,1.47377 v 19.1222 19.12221 l -1.39526,1.39525 c -1.07367,1.07367 -1.83216,1.39526 -3.2908,1.39526 -2.36571,0 -3.17326,-0.75038 -8.99905,-8.36202 -2.40749,-3.14549 -6.16642,-7.86704 -8.35319,-10.49233 l -3.97594,-4.77325 -0.23866,10.26249 c -0.24853,10.68709 -0.41524,11.54586 -2.49315,12.84354 -1.38846,0.8671 -3.81113,1.02054 -5.09151,0.32246 z m -81.16321,-1.5359 c -0.96361,-1.22503 -0.9893,-1.75629 -0.9893,-20.46062 0,-18.70433 0.0257,-19.23559 0.9893,-20.46062 l 0.98929,-1.25769 h 13.29385 13.29384 l 1.4686,1.23575 c 1.9941,1.67793 2.07555,4.52239 0.18598,6.49467 l -1.28262,1.33877 h -9.69587 -9.69586 v 4.29593 4.29592 h 7.29233 c 8.13149,0 9.0767,0.28943 9.81236,3.00468 0.28785,1.06243 0.21823,1.92216 -0.22783,2.81359 -1.26187,2.52172 -2.15392,2.77359 -9.82319,2.77359 h -7.05367 v 4.05727 4.05726 l 9.42717,0.002 c 8.46027,0.001 9.58162,0.096 10.93294,0.91993 1.80334,1.09961 2.43829,3.25212 1.57447,5.33756 -1.10292,2.66254 -1.96161,2.80978 -16.38699,2.80978 H 240.18248 Z M 94.242394,208.55181 c -0.81393,-0.36029 -1.61655,-1.01125 -1.78361,-1.44659 -0.16705,-0.43534 -0.44673,-3.46637 -0.6215,-6.73563 -0.17478,-3.26926 -0.46655,-5.94411 -0.64837,-5.94411 -0.18184,0 -0.73979,0.45576 -1.2399,1.01281 -1.53895,1.71414 -6.03003,4.99375 -8.66158,6.32513 -3.01382,1.52478 -8.39914,2.84543 -9.82901,2.41038 -1.57294,-0.47858 -2.70504,-1.66355 -2.70504,-2.83137 0,-1.22976 1.18995,-2.53474 5.00153,-5.48497 3.14389,-2.43344 7.06438,-7.09315 9.23685,-10.97848 1.47072,-2.63031 3.89998,-8.62421 3.89998,-9.62273 0,-0.29246 -1.03225,0.4338 -2.29388,1.61391 -3.46119,3.23754 -6.88634,4.01098 -8.88989,2.00743 -1.35279,-1.35279 -0.89009,-2.89523 1.59512,-5.31738 4.82155,-4.69925 8.53711,-10.63905 11.24232,-17.9723 l 1.20881,-3.27682 -1.86633,1.68612 c -3.17162,2.86537 -5.89108,3.91493 -8.12553,3.136 -1.67779,-0.58488 -2.29138,-2.44648 -1.29455,-3.92758 0.37884,-0.5629 1.69915,-2.09688 2.93402,-3.40886 3.0675,-3.25906 7.06201,-9.37132 8.8121,-13.48399 1.83097,-4.30273 1.8179,-4.7434 -0.10024,-3.37618 -1.63465,1.16514 -5.16001,1.53472 -6.00839,0.6299 -1.33122,-1.41982 -1.02065,-2.51191 1.98035,-6.96377 1.66545,-2.47062 3.86762,-6.05951 4.89373,-7.97531 4.16146,-7.76972 6.39916,-7.53618 11.133266,1.16194 1.40931,2.58938 3.50146,6.03522 4.64922,7.65744 2.25668,3.18954 2.58165,4.80795 1.21393,6.04571 -1.47732,1.33697 -4.49932,0.77562 -6.64497,-1.23433 -1.366526,-1.28011 -1.353066,-1.14706 0.29315,2.89818 1.7002,4.17788 6.00632,10.70661 9.61091,14.5716 3.19207,3.42267 3.72406,4.66356 2.68149,6.25473 -1.66853,2.5465 -5.32039,1.75539 -9.06491,-1.96377 -2.1126,-2.09829 -2.10975,-1.91733 0.0575,3.65251 1.99701,5.13234 4.76514,9.39762 8.99702,13.86304 4.44187,4.68701 4.88472,5.90611 2.75422,7.58196 -2.31896,1.82409 -4.81573,1.05832 -8.84853,-2.71391 -1.27543,-1.19301 -2.4054,-2.08265 -2.51106,-1.97698 -0.39103,0.391 2.82018,7.94073 4.81015,11.30897 2.79275,4.72701 5.18859,7.46362 9.47045,10.81744 1.98854,1.55756 3.73483,3.30725 3.88065,3.88821 0.62595,2.49398 -1.89197,4.28622 -5.28389,3.76106 -3.22419,-0.49921 -10.22935,-4.27176 -14.25802,-7.67853 l -3.73544,-3.15881 0.14403,6.498 c 0.14121,6.37168 0.12104,6.52062 -1.037816,7.66143 -1.52913,1.5053 -3.20147,1.84601 -5.04833,1.0285 z M 179.544,200.11869 c -10.05191,-1.13501 -19.93296,-3.96938 -29.09872,-8.34693 -10.08938,-4.81866 -15.8601,-8.87869 -24.29353,-17.09185 -7.71156,-7.51016 -7.46997,-8.09032 3.35544,-8.058 14.43742,0.0431 24.39922,2.56201 50.94032,12.88062 13.30971,5.17452 22.73598,8.44683 26.67676,9.2608 2.96982,0.6134 5.01136,0.15342 10.52768,-2.37204 l 2.64675,-1.21173 -5.24784,-1.03881 c -7.63681,-1.51173 -11.75159,-2.76571 -22.18047,-6.75951 -22.02342,-8.43399 -29.12771,-11.07119 -32.94786,-12.23061 -10.58687,-3.21312 -21.23314,-5.09257 -28.84709,-5.09257 h -3.97728 l -1.74105,-1.92714 c -2.43886,-2.69953 -3.98354,-5.98438 -3.31154,-7.04221 0.46017,-0.7244 1.52839,-0.81225 9.53177,-0.78386 10.14801,0.036 14.3048,0.66565 26.53802,4.01988 7.38112,2.02383 12.12201,3.65046 27.10165,9.29881 24.1155,9.09318 34.36993,11.68184 46.3488,11.70036 l 5.53371,0.009 3.2968,-2.3238 c 6.14848,-4.33385 6.43277,-4.11818 -5.44827,-4.13296 -9.49714,-0.0118 -10.85812,-0.12242 -16.55316,-1.34512 -6.89752,-1.48086 -18.9916,-5.45041 -34.84476,-11.43683 l -10.50116,-3.96541 -4.4216,-7.32552 c -2.43187,-4.02902 -4.31634,-7.43075 -4.1877,-7.55939 0.12864,-0.12864 1.85712,1.24678 3.84108,3.05649 4.56176,4.16117 11.86308,10.30661 14.18579,11.94005 1.55754,1.09533 7.9566,3.25215 8.38318,2.82556 0.0864,-0.0864 -7.53501,-7.97806 -16.93639,-17.53713 -9.40138,-9.55905 -20.19151,-20.64236 -23.97807,-24.62956 -3.78656,-3.9872 -6.9688,-7.16532 -7.07163,-7.06249 -0.10283,0.10283 0.047,3.11665 0.3329,6.69737 l 0.51986,6.51041 -2.08038,3.20391 c -1.1442,1.76216 -3.28538,4.70154 -4.75816,6.53199 -1.47277,1.83042 -2.61914,3.38669 -2.54747,3.45835 0.0717,0.0717 3.12055,-1.15682 6.77532,-2.72996 3.65477,-1.57313 6.7827,-2.8609 6.95098,-2.8617 0.16827,-0.001 3.057,3.59639 6.41941,7.99375 3.3624,4.39736 7.00811,9.06919 8.10156,10.38182 1.09346,1.31265 2.25654,2.90136 2.58461,3.53046 0.53622,1.02821 0.50661,1.11774 -0.29297,0.88582 -0.48923,-0.1419 -3.52811,-1.02183 -6.75309,-1.95543 -8.87269,-2.56853 -16.48203,-3.68695 -27.58288,-4.05414 -8.71931,-0.28842 -9.75736,-0.41173 -10.71145,-1.27234 -1.43072,-1.29051 -5.72258,-9.93017 -5.72258,-11.51971 0,-1.51737 -0.64319,-0.64473 15.16777,-20.57872 14.3834,-18.134184 13.84291,-17.704224 17.14727,-13.640574 0.99755,1.22677 2.46835,2.96942 3.26844,3.872554 l 1.45471,1.64207 8.37427,-10.435794 c 4.60585,-5.73968 12.61612,-15.80568 17.8006,-22.368912 5.18449,-6.563223 9.77024,-12.201631 10.19059,-12.529789 2.09973,-1.639271 2.31389,-1.419784 19.0234,19.496511 8.82857,11.05124 17.20432,21.30776 18.61277,22.79228 2.48726,2.621584 2.58196,2.671704 3.29657,1.744484 4.87136,-6.320744 4.99325,-6.443894 6.37697,-6.443894 1.45467,0 3.74525,2.63573 26.2372,30.190834 4.01795,4.92241 7.60463,8.94984 7.97043,8.94984 2.63728,0 5.45275,-13.94997 5.45752,-27.04077 0.009,-24.584184 -10.78937,-48.047082 -29.51936,-64.140322 -12.33109,-10.595161 -24.77084,-16.942531 -39.82932,-20.322845 -6.72146,-1.508828 -17.55509,-2.030012 -24.48239,-1.177793 -31.12308,3.828849 -59.3424,25.810794 -70.81682,55.164026 -3.01357,7.70914 -5.58898,19.09956 -5.8819,26.014234 -0.10221,2.41272 -0.20783,2.63582 -1.30453,2.75538 -0.88013,0.0959 -1.99118,-0.58501 -4.233416,-2.5947 l -3.04011,-2.724804 0.31853,-3.10906 c 1.61211,-15.73509 8.100626,-32.139776 18.204236,-46.025106 15.33902,-21.080309 40.30665,-35.70582 65.70067,-38.486063 20.58798,-2.2540565 42.30842,2.962819 59.56515,14.306539 6.64998,4.371359 9.69116,6.799583 15.20522,12.140556 11.54709,11.184615 19.62516,24.174532 24.67515,39.678824 3.4918,10.7204 4.51089,17.2526 4.51089,28.914044 0,26.54912 -8.94307,48.0014 -27.92353,66.98186 -13.24984,13.24984 -28.28748,21.07664 -48.68719,25.34078 -4.58179,0.95772 -7.49485,1.23443 -14.55843,1.38287 -4.85678,0.10206 -10.63328,-0.018 -12.83665,-0.26679 z m 74.88906,-40.65729 c 0.87552,-1.11575 1.77082,-2.26565 1.98956,-2.55532 0.27593,-0.36542 -1.14813,-0.78036 -4.65084,-1.35516 -11.03372,-1.81068 -19.68537,-5.94966 -32.80915,-15.69602 -5.82031,-4.32245 -5.08852,-3.12905 -9.70015,-15.81899 -1.72048,-4.73428 -4.81419,-13.11295 -6.87493,-18.61927 -2.06074,-5.506334 -3.6611,-10.097204 -3.55636,-10.201924 0.10473,-0.10474 3.58283,3.13942 7.7291,7.209244 11.75504,11.5383 19.64092,18.24473 20.47391,17.41175 0.15723,-0.15723 -0.28816,-1.34053 -0.98974,-2.62956 -1.25545,-2.30669 -12.024,-17.11166 -19.23879,-26.450164 -8.68216,-11.2378 -14.78803,-18.984043 -16.51465,-20.951375 l -1.85096,-2.109022 0.28915,5.381659 c 0.15904,2.959928 0.51771,5.808738 0.79707,6.330708 0.40991,0.76593 0.13481,1.7452 -1.42577,5.07542 -1.06353,2.2695 -1.84465,4.21541 -1.73583,4.32424 0.10883,0.10883 1.10566,-0.3752 2.21519,-1.0756 1.49921,-0.94642 2.11087,-1.1221 2.3816,-0.68404 0.38882,0.62912 7.50224,22.230474 10.02442,30.441204 0.83208,2.70875 1.36768,5.07019 1.19024,5.24764 -0.17745,0.17744 -2.07333,-1.60922 -4.21307,-3.97036 -2.13974,-2.36114 -6.258,-6.76662 -9.15168,-9.78996 -2.89368,-3.02334 -6.73129,-7.05077 -8.528,-8.94985 -1.79672,-1.899084 -3.33677,-3.452874 -3.42235,-3.452874 -0.0856,0 -0.0311,2.08754 0.12116,4.638974 l 0.27677,4.63898 2.56915,3.02849 2.56916,3.0285 -0.91168,1.52105 c -2.70283,4.50943 -4.9225,8.53423 -4.77997,8.66722 0.0891,0.0831 2.16157,-0.44407 4.60555,-1.1715 l 4.44359,-1.32263 1.79481,2.44722 c 0.98715,1.34598 3.91218,5.56178 6.50007,9.36845 5.45626,8.02591 10.26555,14.47748 10.56724,14.17577 0.11549,-0.11548 -0.006,-0.72102 -0.27058,-1.34563 -0.75444,-1.78292 -2.99698,-10.5021 -2.76163,-10.73745 0.11631,-0.11631 2.97961,2.10732 6.36288,4.9414 16.20102,13.57119 28.88621,20.71996 40.28018,22.70003 3.70829,0.64443 4.55324,0.41415 6.20533,-1.69125 z m 5.2125,-21.68476 c -5.33474,-7.8583 -23.38008,-30.22438 -24.38554,-30.22438 -0.5344,0 -0.20144,2.04807 1.35289,8.32161 l 1.17479,4.74167 -1.91575,2.7762 c -1.05364,1.52691 -1.81813,2.77621 -1.69886,2.77621 0.11929,0 1.29257,-0.51893 2.60729,-1.15317 l 2.39041,-1.15317 2.10569,1.51116 c 1.15813,0.83114 5.2902,3.98718 9.18239,7.0134 9.2098,7.16075 10.38526,8.03223 10.58331,7.84642 0.0909,-0.0853 -0.53754,-1.19049 -1.39662,-2.45595 z M 129.73169,88.421046 c -1.09908,-0.64016 -1.07722,-2.93617 0.0376,-3.94505 1.78525,-1.61563 4.497,-0.5089 4.497,1.83532 0,2.19434 -2.44016,3.32963 -4.53459,2.10973 z m 114.94316,-0.5453 c -0.97819,-1.39656 -0.93861,-2.4328 0.12985,-3.39975 1.67997,-1.52036 4.855,-0.44303 4.855,1.64737 0,1.38136 -1.45769,2.81324 -2.86395,2.81324 -0.88272,0 -1.64486,-0.38122 -2.1209,-1.06086 z M 117.91789,77.480796 c -0.52505,-0.52506 -0.95465,-1.38424 -0.95465,-1.9093 0,-0.52506 0.4296,-1.384246 0.95465,-1.909301 0.9116,-0.911601 1.59108,-0.954651 15.06713,-0.954651 8.81528,0 14.45904,0.185471 15.03575,0.494118 1.22766,0.657025 1.2102,3.037564 -0.0314,4.279134 -0.9115,0.9115 -1.59108,0.95465 -15.03575,0.95465 -13.44466,0 -14.12425,-0.0431 -15.03575,-0.95465 z m 111.71274,-0.09 c -1.22989,-1.32012 -1.23582,-2.51137 -0.0186,-3.728601 0.91349,-0.913497 1.59108,-0.954651 15.71764,-0.954651 16.21577,0 16.26316,0.0084 16.26316,2.870982 0,2.7541 -0.59582,2.85692 -16.55535,2.85692 -14.23345,0 -14.44711,-0.0145 -15.40686,-1.04465 z M 123.68045,66.676603 c -1.25743,-1.598549 -1.24219,-1.874087 0.18232,-3.298601 l 1.17161,-1.171614 h 16.62188 c 17.94508,0 18.75321,0.10925 18.73628,2.53302 -0.0214,3.068416 -0.78377,3.194881 -19.25834,3.194881 h -16.46446 z m 94.47578,0.303036 c -0.52506,-0.52506 -0.95465,-1.384241 -0.95465,-1.909305 0,-0.525055 0.42959,-1.38424 0.95465,-1.909296 0.91982,-0.919819 1.58594,-0.954388 18.25769,-0.947344 9.51667,0.0036 17.53938,0.165114 17.82825,0.357993 1.86402,1.244645 1.72401,3.809261 -0.2661,4.874336 -0.5728,0.306551 -7.23039,0.488266 -17.88876,0.488266 -16.34001,0 -17.01223,-0.03577 -17.93108,-0.95465 z M 131.0714,55.894947 c -1.06529,-1.520922 -0.92156,-2.548038 0.51463,-3.677746 1.21818,-0.958223 1.78465,-0.989299 18.03217,-0.989299 18.47411,0 18.89618,0.06292 18.89618,2.817039 0,2.912157 0.009,2.910867 -19.22286,2.910867 h -17.47706 z m 79.28293,0.187957 c -1.06219,-1.17371 -0.99607,-2.739594 0.16469,-3.900352 0.91967,-0.919672 1.59108,-0.95465 18.32415,-0.95465 16.05204,0 17.45044,0.06555 18.43669,0.864164 1.18297,0.957912 1.41626,3.008236 0.47176,4.146279 -0.51057,0.615194 -3.16202,0.717463 -18.60138,0.717463 -16.83766,0 -18.0572,-0.05661 -18.79591,-0.872904 z M 185.93676,46.049493 c -2.23254,-1.059904 -4.2643,-3.097485 -4.98155,-4.995835 -1.49142,-3.947384 0.54027,-9.124069 4.36119,-11.11209 1.63431,-0.850336 5.20235,-0.863076 7.20637,-0.02571 2.03866,0.851807 4.45116,3.655576 5.14869,5.983712 1.9438,6.487826 -5.637,13.044851 -11.7347,10.149963 z"
       id="path1" />
  </g>
</svg>