<svg width="24" height="24" viewBox="0 0 24 24" fill="none" xmlns="http://www.w3.org/2000/svg">
    <g id="arrow-left">
        <path id="Union" fill-rule="evenodd" clip-rule="evenodd"
              d="M12.5303 5.53033C12.8232 5.23744 12.8232 4.76256 12.5303 4.46967C12.2374 4.17678 11.7626 4.17678 11.4697 4.46967L4.46967 11.4697C4.39776 11.5416 4.34351 11.6245 4.30691 11.7129C4.27024 11.8013 4.25 11.8983 4.25 12C4.25 12.1017 4.27024 12.1987 4.30691 12.2871C4.34324 12.3749 4.39696 12.4572 4.46808 12.5287C4.46861 12.5293 4.46914 12.5298 4.46967 12.5303M4.47004 12.5307L11.4697 19.5303C11.7626 19.8232 12.2374 19.8232 12.5303 19.5303C12.8232 19.2374 12.8232 18.7626 12.5303 18.4697L6.81066 12.75H19C19.4142 12.75 19.75 12.4142 19.75 12C19.75 11.5858 19.4142 11.25 19 11.25H6.81066L12.5303 5.53033"
              fill="#444444"/>
    </g>
</svg>
