<svg width="24" height="24" viewBox="0 0 24 24" fill="none" xmlns="http://www.w3.org/2000/svg">
    <g id="Filters">
        <path id="Union" fill-rule="evenodd" clip-rule="evenodd"
              d="M1.75659 7.11963C1.75659 6.70542 2.09238 6.36963 2.50659 6.36963H20.5066C20.9208 6.36963 21.2566 6.70542 21.2566 7.11963C21.2566 7.53384 20.9208 7.86963 20.5066 7.86963H2.50659C2.09238 7.86963 1.75659 7.53384 1.75659 7.11963ZM4.75659 12.1196C4.75659 11.7054 5.09238 11.3696 5.50659 11.3696L17.5066 11.3696C17.9208 11.3696 18.2566 11.7054 18.2566 12.1196C18.2566 12.5338 17.9208 12.8696 17.5066 12.8696L5.50659 12.8696C5.09238 12.8696 4.75659 12.5338 4.75659 12.1196ZM8.50659 16.3696C8.09238 16.3696 7.75659 16.7054 7.75659 17.1196C7.75659 17.5338 8.09238 17.8696 8.50659 17.8696L14.5066 17.8696C14.9208 17.8696 15.2566 17.5338 15.2566 17.1196C15.2566 16.7054 14.9208 16.3696 14.5066 16.3696L8.50659 16.3696Z"
              fill="black"/>
    </g>
</svg>
