<svg xmlns="http://www.w3.org/2000/svg" width="102" height="89" viewBox="0 0 102 89">
    <path d="M79.6557691,88.2423888 C79.4339796,88.1015558 78.6191259,87.2268286 77.844984,86.2985558 C77.0708392,85.3702799 76.3772326,84.5887711 76.3036338,84.5618645 C76.2280027,84.5342231 76.1698142,85.2422652 76.1698142,86.1901976 C76.1698142,88.0500824 76.0367632,88.3532313 75.2204797,88.3532313 C74.4637899,88.3532313 74.4184198,88.1379539 74.4133281,84.5234617 C74.409085,81.4937842 74.4318377,81.1863769 74.6770533,80.9644644 C75.2992994,80.4013415 75.5960129,80.6044062 77.440595,82.8557879 C78.0991685,83.6595974 78.8091323,84.477369 79.0182972,84.6730606 L79.398593,85.0288573 L79.398593,83.0987436 C79.398593,81.1792252 79.4007453,81.1672493 79.7824094,80.9171419 C80.1235183,80.6936398 80.2082321,80.6892307 80.5437021,80.8775276 C81.1012844,81.1904878 81.1814907,81.7540197 81.1314594,85.0071777 C81.0871808,87.8862569 81.0800814,87.9445161 80.7398887,88.2197129 C80.313697,88.5644838 80.1678215,88.567537 79.6557691,88.2424041 L79.6557691,88.2423888 Z M13.1435769,88.027053 C12.9539271,87.7562868 12.9151123,87.1625861 12.9151123,84.5324244 C12.9151123,81.5466566 12.9323613,81.3454551 13.2143532,81.0427737 C13.7996446,80.4145411 14.3301482,80.6902023 15.3620595,82.1587654 C15.7424937,82.700181 16.2472006,83.3939782 16.4836226,83.7005368 L16.9134855,84.2579162 L18.1541343,82.5631514 C19.4146671,80.8412125 19.8586336,80.495347 20.3860317,80.8244431 C20.9327911,81.1656167 20.9925323,81.5836051 20.9525306,84.7881615 C20.9161263,87.7045213 20.8951692,87.9147593 20.6201507,88.1223437 C20.2182122,88.4257293 19.6147524,88.4082928 19.3220329,88.0848418 C19.126535,87.8688142 19.0791418,87.4965648 19.0791418,86.1769273 C19.0791418,84.5674481 18.9661593,84.2193535 18.6409742,84.8269672 C18.3562796,85.358925 17.016137,86.8856059 16.8338726,86.8856059 C16.7349291,86.8856059 16.2585247,86.3584353 15.775193,85.7141191 C15.2918613,85.0697999 14.8468771,84.5414547 14.7863334,84.5400189 C14.7257959,84.5384815 14.6762627,85.2866668 14.6762627,86.2024257 C14.6762627,87.6290869 14.6378414,87.9022238 14.4078732,88.1103432 C14.0248071,88.4570143 13.4166769,88.4169511 13.1435769,88.027053 L13.1435769,88.027053 Z M25.7568428,88.0034394 C24.426656,87.374595 23.6379137,86.1487847 23.631948,84.7011817 C23.6274567,83.5861246 23.8844809,82.8605383 24.5530657,82.1009859 C25.5905053,80.9223935 26.928385,80.5067603 28.3476977,80.922126 C29.341732,81.2130314 30.0571134,81.8047827 30.5831218,82.771234 C31.47436,84.4087328 31.1777203,86.1262411 29.7878292,87.375871 C28.6333577,88.4138426 27.1225115,88.6490593 25.7568428,88.0034394 Z M28.5737027,86.1271173 C29.7458843,85.0322856 29.5228403,83.4625806 28.0970184,82.7723501 C27.5031917,82.4848852 27.3486025,82.4650135 26.8554411,82.6127707 C26.2496722,82.7942634 25.5919535,83.4589433 25.4471234,84.0359976 C25.2262224,84.9161239 25.7706297,86.004674 26.6249717,86.3911223 C27.2359152,86.6674753 28.1239804,86.5471658 28.5737027,86.1271173 Z M35.3523715,87.9432555 C34.8631979,87.6877089 34.4008325,87.2962274 34.1248208,86.9038942 C33.6846578,86.2782352 33.681746,86.2609247 33.6346972,83.9906859 C33.6086546,82.7345929 33.6247659,81.5578238 33.6705019,81.3756455 C33.7193741,81.1809378 33.9325914,80.9820332 34.1878212,80.8930579 C34.5475504,80.7676567 34.6861205,80.7921343 34.9959014,81.0358064 C35.3648301,81.3260077 35.3697988,81.3572558 35.3697988,83.3879856 C35.3697988,85.7025245 35.4994984,86.1177119 36.3483582,86.5205236 C37.1445086,86.8983228 38.1580272,86.4911604 38.4408308,85.679904 C38.5275893,85.4310295 38.5985746,84.3149763 38.5985746,83.1997901 C38.5985746,81.2488454 38.6110578,81.1652938 38.9287899,80.990178 C39.3675079,80.7483784 39.7888877,80.8189979 40.1028933,81.1869396 C40.3209778,81.4424892 40.3597281,81.7983843 40.3597281,83.5459723 C40.3597281,86.0079301 40.211439,86.5991926 39.386903,87.4249492 C38.3541953,88.4591819 36.7375276,88.6668709 35.3523715,87.9432555 L35.3523715,87.9432555 Z M43.5234465,88.0270376 C43.3336768,87.7561023 43.2949818,87.1604861 43.2949818,84.5104527 C43.2949818,81.4174151 43.3047901,81.310911 43.6161791,81.0208019 C44.2393476,80.4402332 44.6686816,80.6767628 45.9657694,82.3152363 C46.8797234,83.4697385 48.0980316,84.8309151 48.2174094,84.8309151 C48.2545363,84.8309151 48.2849111,84.0091187 48.2849111,83.0047043 C48.2849111,81.2839183 48.3037282,81.165303 48.6110924,80.9500257 C49.0500994,80.6425323 49.3999251,80.6624717 49.7525364,81.0150861 C50.02809,81.2906396 50.0460615,81.5042935 50.0460615,84.5047337 C50.0460615,88.1164373 49.9880083,88.3532159 49.1024737,88.3532159 C48.5619989,88.3532159 48.3541623,88.1537978 46.3769935,85.7380771 C45.7715998,84.9983995 45.2267436,84.3926306 45.166203,84.3919173 C45.1056655,84.3913024 45.0561323,85.2138428 45.0561323,86.2199944 C45.0561323,87.8784349 45.0295977,88.0635619 44.7722525,88.2012925 C44.3026001,88.4526421 43.7694431,88.37825 43.5234465,88.0270376 L43.5234465,88.0270376 Z M54.9853568,88.0848264 C54.7786332,87.8563986 54.7424688,87.4302623 54.7424688,85.2229562 L54.7424688,82.6294755 L53.8945467,82.6294755 C52.8724191,82.6294755 52.3942651,82.3534239 52.3942651,81.7633237 C52.3942651,80.9389353 52.6519824,80.8683251 55.6608073,80.8683251 C58.6223896,80.8683251 58.8518197,80.9271131 58.8518197,81.6859983 C58.8518197,82.3215793 58.3728725,82.6294755 57.3841944,82.6294755 L56.5036192,82.6294755 L56.5036192,85.2484546 C56.5036192,87.5992963 56.4761315,87.8923048 56.2352297,88.1103279 C55.8807705,88.431107 55.2877862,88.4190081 54.9853568,88.0848387 L54.9853568,88.0848264 Z M60.1097883,88.1225897 C59.982942,87.9957465 59.8791621,87.8045717 59.8791621,87.697757 C59.8791621,87.3993678 62.9443245,80.9698605 63.1483823,80.8402224 C63.5162349,80.6065185 63.9727061,80.7337829 64.3423727,81.1731097 C64.55135,81.4214614 64.7223273,81.6838276 64.7223273,81.7561473 C64.7223273,81.8284671 65.3167167,83.1533224 66.0431916,84.7002654 C66.7696666,86.2472116 67.3640529,87.5926703 67.3640529,87.6901687 C67.3640529,88.0683338 66.8139636,88.3846577 66.3380942,88.2801398 C65.98405,88.2023779 65.8078089,88.0319018 65.5651822,87.5325018 L65.2508876,86.8855905 L63.6695111,86.8855905 L62.0881377,86.8855905 L61.8465257,87.3625699 C61.7136407,87.6249084 61.5035781,87.9551268 61.3797235,88.0963841 C61.0997701,88.415672 60.4169588,88.4297633 60.1097883,88.1225805 L60.1097883,88.1225897 Z M64.4288022,85.2074936 C64.4288022,85.1724545 64.2495233,84.7304066 64.0304026,84.2251616 L63.6320092,83.3065341 L63.2304365,84.1787984 C63.0095755,84.6585419 62.8256139,85.1005898 62.8216414,85.1611304 C62.817675,85.221671 63.1776503,85.2712042 63.6216075,85.2712042 C64.0655647,85.2712042 64.4288022,85.2425174 64.4288022,85.2074936 Z M69.9428858,88.1225897 C69.7470497,87.9267567 69.7122596,87.3995523 69.7122596,84.6279611 C69.7122596,81.577508 69.7312612,81.3435458 70.0029283,81.0519577 C70.3571139,80.671788 70.9840458,80.7320457 71.3633393,81.1827211 C71.5898884,81.4519101 71.6201741,81.8470351 71.6201741,84.5338541 C71.6201741,87.3931477 71.6015415,87.6035178 71.3159952,87.9665186 C70.9660773,88.4113705 70.3066183,88.4863253 69.9428858,88.1225897 L69.9428858,88.1225897 Z M85.1392842,88.1328899 C84.4649006,87.9225843 83.5079471,87.121868 83.5079471,86.7678976 C83.5079471,86.654125 83.6627884,86.3770249 83.8520323,86.1521176 L84.1961175,85.7431934 L84.8228957,86.1641427 C85.8575312,86.8590129 86.9794664,86.9018556 87.3812051,86.2618317 C87.6563896,85.8234243 87.3124305,85.5047698 86.4272586,85.3780711 C84.678533,85.1277639 83.5668796,84.1490508 83.6955922,82.973078 C83.8159386,81.8735481 84.7080469,81.041925 86.0340521,80.7931643 C86.7580919,80.6573339 88.0899544,81.06259 88.6847005,81.5997011 L89.15831,82.0274117 L88.6320096,82.5587638 L88.1057091,83.090116 L87.4760992,82.7619423 C86.4790948,82.2422739 85.5626226,82.3958331 85.5626226,83.0825492 C85.5626226,83.4157562 85.8786021,83.5902785 86.7367259,83.7310408 C89.1894966,84.1333791 90.1064669,85.9791265 88.59963,87.4808378 C87.7285126,88.3489943 86.5464858,88.5717309 85.1392842,88.132893 L85.1392842,88.1328899 Z M1.81380444,84.7501615 C1.52301892,84.4593759 1.46100554,84.2874732 1.53584652,83.979657 C1.73854224,83.1460077 2.00644901,83.0766181 5.03626787,83.0730392 C7.72687181,83.0698415 8.26423807,83.1457402 8.54667581,83.568725 C8.76201157,83.8912259 8.65128899,84.4934773 8.3193211,84.805346 C7.99425896,85.1107239 7.85504017,85.1244555 5.08387019,85.1244555 L2.18809541,85.1244555 L1.81380444,84.7501615 Z M93.5545171,84.7642128 C93.0893199,84.2990156 93.0981688,83.8786443 93.5826197,83.4296722 C93.9682071,83.0723197 93.9919529,83.0697739 96.9383678,83.0697739 C99.718193,83.0697739 99.9302266,83.0889907 100.292477,83.3739497 C100.5489,83.5756492 100.679177,83.8192782 100.679177,84.097107 C100.679177,84.3749389 100.5489,84.6185679 100.292477,84.8202705 C99.929956,85.1054324 99.7185189,85.1244463 96.9102682,85.1244463 C93.9255304,85.1244463 93.9134561,85.1232164 93.5545171,84.7642097 L93.5545171,84.7642128 Z M0.935406115,76.6122162 C0.763761669,76.5440811 0.483079571,76.2913756 0.311665727,76.0506429 C0.00664132561,75.6222805 0,75.4898106 0,69.8344482 C0,64.6301948 0.0248434773,64.0198816 0.250098179,63.693073 C0.668759966,63.0856346 0.916075553,62.9584502 1.52840577,63.0356955 C2.20069856,63.1205077 2.44516391,63.3179703 3.3465855,64.5043017 C3.71458873,64.9886173 4.91183218,66.5043 6.00712206,67.8724807 L7.99856352,70.3600846 L8.07194402,67.1386665 C8.13862785,64.2113301 8.17212349,63.8815729 8.43885266,63.5263942 C8.71569447,63.1577483 9.20856692,62.9632928 9.86611658,62.9632928 C10.0255391,62.9632928 10.3805211,63.1878403 10.6549646,63.4622869 L11.1539588,63.9612811 L11.1539588,69.690147 C11.1539588,73.0565735 11.0949463,75.5742262 11.0108567,75.7954039 C10.8186241,76.3010147 10.0939971,76.7249004 9.5567046,76.6460408 C8.99764334,76.5639897 8.61531207,76.1545889 5.72671054,72.544927 C4.39320615,70.8785507 3.21960397,69.488429 3.11870501,69.4557697 C2.97570129,69.4094833 2.93525069,70.1086673 2.93525069,72.6269166 C2.93525069,75.3737596 2.90057744,75.8921151 2.70366521,76.0890304 C2.18659496,76.6060976 1.46090715,76.8208122 0.935406115,76.6122162 Z M18.7343248,76.6050214 C17.1903488,76.3459513 15.3588618,75.0513448 14.3814094,73.5281168 C12.6019,70.7549913 13.1448314,67.0347821 15.6669486,64.7195145 C16.6633504,63.8048287 17.7223897,63.2984614 19.0189302,63.1167997 C22.4117528,62.6414191 25.4452478,64.7468884 26.3451136,68.2017214 C27.3159309,71.9289348 24.7996279,75.8891665 21.0030816,76.609163 C20.1158589,76.7774222 19.7579007,76.7767704 18.7343248,76.6050122 L18.7343248,76.6050214 Z M21.3744454,73.3078861 C22.1898096,72.9726191 23.0055212,72.1024117 23.3435124,71.2072717 C24.4577626,68.2562602 21.7195053,65.2909575 18.7813675,66.266848 C16.3110773,67.08735 15.4714876,70.3168668 17.2138671,72.2963139 C18.3332717,73.5680232 19.8468329,73.9360233 21.3744454,73.3078861 L21.3744454,73.3078861 Z M29.556253,76.621963 C29.38578,76.5493265 29.1050979,76.3103802 28.9325095,76.0909705 C28.6240476,75.6988218 28.6187161,75.5940087 28.6187161,69.9242599 C28.6187161,66.6275766 28.6785803,63.9990198 28.7584514,63.7889479 C29.0070922,63.1349772 29.3747757,63.057449 32.050987,63.0946773 C35.1664359,63.1380181 35.7494029,63.3172785 37.07059,64.6382013 C37.7408351,65.308311 38.0315899,65.7333805 38.2338428,66.3388142 C38.6078571,67.4584064 38.5823372,68.7311672 38.1685026,69.5975897 C37.8506506,70.2630628 36.7091144,71.4755075 36.4004126,71.4755075 C36.0734872,71.4755075 36.3012755,71.9145452 37.4978548,73.5906775 C38.1839714,74.5517664 38.7453356,75.4317329 38.7453356,75.5461574 C38.7453356,75.660585 38.5522882,75.9472535 38.3163398,76.1832019 C37.9601433,76.5393984 37.7665702,76.6122008 37.1756767,76.6122008 C36.1606946,76.6122008 35.6532328,76.1297423 34.339557,73.9158073 L33.2417398,72.0656538 L32.3978517,72.0641165 L31.5539668,72.0625792 L31.5539668,73.9623119 C31.5539668,75.7219526 31.5296152,75.8900674 31.2237515,76.2420884 C30.862325,76.6580506 30.0664451,76.8393711 29.556253,76.6219814 L29.556253,76.621963 Z M34.8592285,69.3737063 C35.4955566,68.737375 35.6362574,68.0154537 35.2970517,67.1272564 C34.9282829,66.1616507 34.4222262,65.8997641 32.9237525,65.8990805 C32.2645456,65.8987741 31.7031783,65.9633733 31.6762686,66.0426264 C31.6493651,66.1218796 31.6476433,67.0134591 31.6724253,68.0239214 L31.7175063,69.8611181 L33.0446554,69.8611181 C34.3521048,69.8611181 34.3790483,69.8538926 34.8592285,69.3737001 L34.8592285,69.3737063 Z M44.3030705,76.3220056 L43.8820289,75.9009671 L43.8820289,70.8997538 L43.8820289,65.8985343 L42.2140538,65.8985343 C40.7565104,65.8985343 40.4979753,65.8607002 40.1648328,65.5986507 C39.6742664,65.2127682 39.5258881,64.4629994 39.8254519,63.8837098 C40.2532178,63.0564958 40.4486112,63.0293156 45.3871501,63.1100446 L49.8762281,63.1834251 L50.2546699,63.5392218 C50.7956612,64.0478459 50.7907847,65.0326099 50.2447694,65.5386359 C49.8853353,65.8717476 49.7450281,65.8985343 48.3596844,65.8985343 L46.8629356,65.8985343 L46.7672606,67.9899031 C46.7146404,69.1401561 46.6713457,71.388623 46.6710505,72.9865044 C46.6704356,75.8750598 46.6685908,75.8938062 46.310279,76.2519735 C46.1121492,76.4501033 45.8644861,76.6167575 45.759916,76.6223196 C45.6553489,76.6278848 45.3795125,76.6573219 45.1469462,76.6877428 C44.8317292,76.7289744 44.6169316,76.6358821 44.3030613,76.3220149 L44.3030705,76.3220056 Z M53.7174509,76.6086865 C53.4362061,76.5425561 53.0536658,76.3112381 52.8673612,76.0946417 L52.5286167,75.7008326 L52.5715147,69.7601638 L52.6144066,63.819498 L53.1050438,63.3812535 C53.490256,63.0371745 53.6952301,62.9575985 54.0590026,63.0109013 C54.7592935,63.113522 54.9550588,63.2269288 55.2272117,63.6876431 C55.4318414,64.0340528 55.4762799,64.5045754 55.4762799,66.324769 L55.4762799,68.5402537 L57.9611442,68.5402537 L60.4460146,68.5402537 L60.4928021,66.201268 L60.5395927,63.8622854 L60.9618181,63.4219962 C61.3157362,63.0529353 61.4819384,62.9878657 61.9891574,63.019781 C62.7787679,63.0694648 63.1739207,63.2945135 63.3907661,63.8180314 C63.6530646,64.4512726 63.5520181,75.5228236 63.2795762,76.0008852 C63.0535128,76.3975722 62.2514129,76.7750086 61.8136296,76.6906976 C60.7314748,76.4822922 60.5631817,76.0843968 60.492384,73.5668763 L60.4335713,71.4755136 L57.9654979,71.4755136 L55.4974276,71.4755136 L55.4501635,73.6893565 L55.4028994,75.9031993 L54.9236017,76.3310852 C54.6599933,76.5664218 54.3958192,76.7522129 54.3365546,76.7439481 C54.277287,76.7356772 53.9986895,76.6748199 53.7174509,76.6086926 L53.7174509,76.6086865 Z M79.4019106,76.6510157 C79.2019329,76.6136275 78.8882287,76.4210905 78.7047867,76.2231544 C78.3737412,75.8659495 78.3709801,75.8274698 78.3345635,71.064351 C78.2750898,63.2856738 78.2460494,63.9023455 78.6928907,63.4555042 L79.0805166,63.0678783 L81.6244487,63.0965959 C84.5380474,63.1294858 84.6087775,63.1404963 85.7512454,63.7389935 C87.8915786,64.8602368 88.8565018,67.4317704 87.9241088,69.529679 C87.6072069,70.2427176 86.8552644,71.0835617 86.2131835,71.4428881 C85.8527593,71.6445907 85.9729888,71.8880138 87.3802488,73.8057334 C87.9949466,74.6434014 88.4978763,75.4237479 88.4978763,75.539845 C88.4978763,76.2408862 87.5359849,76.8396109 86.6705525,76.6772551 C85.8868392,76.5302296 85.311439,75.9209034 84.1105674,73.9663244 L82.9859973,72.1359443 L82.1462509,72.0919271 L81.3065075,72.0479129 L81.3065075,73.8094845 C81.3065075,74.8142003 81.2347136,75.7286247 81.1394105,75.9377957 C80.9863188,76.2737915 80.1867216,76.7865694 79.8900819,76.7389825 C79.8215625,76.7279751 79.6018852,76.6884039 79.4019106,76.6510188 L79.4019106,76.6510157 Z M84.459895,69.5429525 C84.8954092,69.2003769 85.2690975,68.4559212 85.2690975,67.9308721 C85.2690975,67.354445 84.7005478,66.3948073 84.2024914,66.1305994 C83.8409265,65.9387942 83.4488362,65.8899928 82.5539914,65.9254224 L81.379888,65.9719086 L81.3389363,67.9165133 L81.2979876,69.8611181 L82.6766991,69.8611181 C83.8687771,69.8611181 84.1101677,69.8180509 84.459895,69.5429525 L84.459895,69.5429525 Z M91.5960486,76.5509807 C90.8674706,76.1537557 90.8568414,76.0587109 90.8512823,69.8905213 C90.8456864,63.6894664 90.8661946,63.5059229 91.6040643,63.1583541 C92.0422288,62.9519503 92.57918,62.9379358 92.9265398,63.1238376 C93.0764216,63.2040501 93.7050538,63.9107025 94.3235057,64.694176 C96.8968349,67.9541598 98.794277,70.2983079 98.9251849,70.3792153 C99.0119096,70.4328132 99.0647911,69.2071658 99.0647911,67.1433831 L99.0647911,63.821269 L99.492142,63.3939182 C99.8612459,63.0248142 100.006098,62.974909 100.554889,63.027769 C101.034802,63.0739938 101.289362,63.1998531 101.595164,63.5421058 L102.000042,63.9952441 L102.000042,69.8747236 L102.000042,75.7542061 L101.571043,76.1832019 C101.240923,76.5133219 101.007711,76.6122008 100.559225,76.6122008 C99.8318427,76.6122008 99.5835463,76.3814824 97.7922978,74.0411408 C97.0520698,73.0740008 95.8963161,71.6222716 95.2239526,70.8150769 L94.0014752,69.3474515 L93.9280947,72.5028468 C93.8516795,75.7887933 93.8004214,76.0528382 93.1615289,76.4518343 C92.7346208,76.7184405 91.9897255,76.7656185 91.5960486,76.5509807 L91.5960486,76.5509807 Z M66.6408956,76.0787394 C66.3446156,75.7020809 66.3367167,75.5387351 66.3367167,69.7877376 C66.3367167,64.0367401 66.3446186,63.8733942 66.6408956,63.4967357 L66.9450713,63.1100353 L71.0325152,63.1100353 L75.1199559,63.1100353 L75.5715046,63.4899899 C76.184628,64.005901 76.2096714,64.8804836 75.6286876,65.4868981 L75.234322,65.8985281 L72.2531447,65.8985281 L69.2719705,65.8985281 L69.2719705,67.2193925 L69.2719705,68.5402537 L71.5141343,68.5402537 C74.0143136,68.5402537 74.3049361,68.6292444 74.5311286,69.464099 C74.6196335,69.7907631 74.5982275,70.0551032 74.461078,70.3291901 C74.0730924,71.1045403 73.7988148,71.1819824 71.4407538,71.1819824 L69.2719705,71.1819824 L69.2719705,72.4294663 L69.2719705,73.6769471 L72.1705309,73.677562 C74.7717998,73.6778695 75.1165799,73.707079 75.5320686,73.9604117 C76.0865394,74.2985075 76.2817667,74.9603371 76.016169,75.6015448 C75.6770555,76.4201927 75.4130351,76.4654644 70.9776812,76.4654644 L66.9450713,76.4654644 L66.6408956,76.0787394 Z M22.0730514,60.7023672 C21.8227933,60.5915893 21.5760127,60.3914394 21.524647,60.257586 C21.4732843,60.1237325 21.3872915,59.1917854 21.3335552,58.1865901 C21.2798158,57.1813947 21.1901056,56.3589618 21.1342016,56.3589618 C21.0782915,56.3589618 20.9067393,56.4990938 20.7529711,56.6703693 C20.279792,57.1974138 18.8989251,58.2057915 18.0898057,58.6151493 C17.1631501,59.0839715 15.5073323,59.4900302 15.067692,59.3562659 C14.584062,59.2091175 14.2359766,58.8447762 14.2359766,58.485708 C14.2359766,58.1075952 14.6018491,57.7063546 15.7737909,56.799251 C16.740439,56.0510441 17.9458672,54.6183288 18.6138339,53.4237111 C19.0660344,52.6149729 19.812956,50.7720358 19.812956,50.4650221 C19.812956,50.3750998 19.4955714,50.598402 19.1076595,50.961249 C18.0434517,51.9566915 16.990325,52.1945001 16.3742959,51.5784711 C15.9583552,51.1625304 16.100621,50.6882782 16.8647455,49.9435427 C18.3472216,48.4986701 19.4896403,46.672367 20.3214079,44.4176216 L20.6930792,43.4101018 L20.119241,43.928531 C19.1440669,44.8095428 18.3079179,45.1322498 17.6208943,44.8927531 C17.1050262,44.7129208 16.9163664,44.1405369 17.2228605,43.6851449 C17.339342,43.5120707 17.7452961,43.0404198 18.1249801,42.6370269 C19.0681406,41.6349677 20.2963277,39.7556386 20.8344257,38.4911209 C21.3973918,37.1681658 21.3933732,37.0326735 20.803605,37.453051 C20.3010012,37.8112952 19.2170631,37.9249295 18.9562127,37.6467256 C18.5469041,37.2101753 18.6423947,36.8743917 19.5651085,35.5055837 C20.0771824,34.7459452 20.7542809,33.6424736 21.0697777,33.0534249 C22.3492967,30.6644786 23.0373196,30.7362849 24.4929094,33.4106852 C24.9262282,34.2068387 25.569499,35.2663269 25.9223994,35.7651089 C26.616258,36.7457929 26.7161761,37.2434034 26.295645,37.623976 C25.8414152,38.0350525 24.9122445,37.8624549 24.2525241,37.244458 C23.8323601,36.8508642 23.8364986,36.8917729 24.3426586,38.1355579 C24.865417,39.4201256 26.1894145,41.4275062 27.2977134,42.61587 C28.2791752,43.6682341 28.4427456,44.049769 28.1221878,44.5390041 C27.6091669,45.3219734 26.486334,45.0787318 25.335011,43.9352062 C24.6854525,43.2900475 24.6863288,43.3456871 25.3526905,45.058239 C25.9667087,46.6362733 26.8178223,47.9477137 28.1189932,49.3206909 C29.4847296,50.7618002 29.6208921,51.1366354 28.9658299,51.6519069 C28.2528221,52.2127576 27.4851433,51.9773073 26.2451832,50.8174643 C25.8530283,50.450651 25.5055978,50.1771145 25.4731106,50.2096047 C25.3528811,50.329825 26.3402279,52.6511313 26.9520816,53.6867599 C27.810765,55.1401679 28.547411,55.98159 29.8639493,57.012785 C30.4753632,57.491686 31.0122929,58.0296611 31.057128,58.2082881 C31.2495881,58.9751091 30.4754063,59.526167 29.4324968,59.3646967 C28.441159,59.2112052 26.287291,58.0512638 25.0486008,57.0037884 L23.9000696,56.032553 L23.9443543,58.0304851 C23.987772,59.9895778 23.9815704,60.0353722 23.6252583,60.3861356 C23.1550986,60.8489684 22.6409062,60.9537261 22.0730545,60.7023672 L22.0730514,60.7023672 Z M48.300632,58.1094461 C45.2099835,57.760466 42.1718691,56.8889857 39.3536841,55.5430258 C36.2515147,54.0614383 34.4771985,52.8131058 31.8841821,50.2878155 C29.5131182,47.9786758 29.5873995,47.8002947 32.9158751,47.8102321 C37.354931,47.823484 40.4178735,48.5979702 48.5784331,51.7706206 C52.6707534,53.361624 55.5690371,54.3677571 56.7807039,54.6180275 C57.6938308,54.8066288 58.3215406,54.6651993 60.0176368,53.8886992 L60.8314298,53.5161301 L59.2178828,53.1967285 C56.8698022,52.7319187 55.6046358,52.346359 52.3980808,51.1183902 C45.6265668,48.5252016 43.4422194,47.7143449 42.2676426,47.3578595 C39.0125106,46.3699254 35.7391149,45.7920532 33.398063,45.7920532 L32.1751736,45.7920532 L31.6398551,45.1995178 C30.8899818,44.3694966 30.4150409,43.3595078 30.6216599,43.0342581 C30.7631479,42.8115277 31.0915922,42.7845166 33.5523816,42.7932456 C36.6725779,42.8043145 37.950661,42.9979122 41.7119942,44.0292332 C43.9814582,44.6514977 45.4391338,45.1516357 50.0449054,46.888327 C57.4596688,49.6841959 60.6125858,50.480128 64.2957143,50.4858224 L65.9971574,50.4885896 L67.0108205,49.7740936 C68.9012861,48.4415701 68.9886964,48.5078819 65.3356475,48.5033375 C62.4155735,48.4997093 61.9971147,48.4656971 60.2460677,48.0897551 C58.1252956,47.6344368 54.4067436,46.4139242 49.5323919,44.5732869 L46.303613,43.3540471 L44.9441091,41.1016785 C44.196385,39.8628806 43.6169693,38.8169548 43.6565221,38.7774021 C43.6960749,38.7378493 44.2275285,39.160748 44.8375343,39.7171773 C46.240133,40.9966072 48.485061,42.8861381 49.1992218,43.3883699 C49.6781167,43.7251497 51.6456279,44.3883045 51.7767879,44.2571414 C51.8033532,44.2305761 49.4600076,41.804137 46.5693767,38.8650214 C43.6787459,35.925912 40.3611178,32.5181402 39.1968689,31.2922007 C38.0326199,30.0662612 37.0541804,29.0890885 37.0225634,29.1207055 C36.9909464,29.1523225 37.0370145,30.0789781 37.1249198,31.1799377 L37.2847605,33.1816855 L36.6451086,34.1667878 C36.2933028,34.708597 35.6349568,35.6123646 35.182123,36.1751708 C34.7292922,36.7379678 34.3768192,37.2164722 34.3988555,37.2385054 C34.420901,37.260551 35.3583272,36.8828194 36.4820548,36.399128 C37.6057825,35.9154396 38.5675233,35.5194905 38.6192642,35.5192446 C38.6710019,35.5189371 39.5591962,36.6250222 40.5930323,37.9770731 C41.6268653,39.329124 42.7478073,40.7655659 43.0840091,41.1691586 C43.4202139,41.5727575 43.7778247,42.0612362 43.8786959,42.2546649 C44.0435669,42.5708073 44.0344627,42.598335 43.7886168,42.5270268 C43.6381939,42.483397 42.7038331,42.212846 41.7122525,41.9257932 C38.9841773,41.1360504 36.6445429,40.7921712 33.2313781,40.6792717 C30.5504625,40.5905916 30.2312945,40.5526776 29.9379416,40.2880669 C29.4980399,39.8912753 28.1784269,37.2348496 28.1784269,36.7461157 C28.1784269,36.2795718 27.9806661,36.5478814 32.8420427,30.4188018 C37.2644891,24.8431064 37.0983053,24.9753057 38.1142928,26.2247512 C38.4210083,26.6019447 38.8732334,27.1377551 39.1192361,27.4154406 L39.566514,27.9203259 L42.1413405,24.7116451 C43.5574956,22.9468727 46.0204035,19.8518919 47.6144693,17.833903 C49.2085381,15.8159169 50.618513,14.0822824 50.7477575,13.9813841 C51.393359,13.4773595 51.4592065,13.5448449 56.5968591,19.9759525 C59.3113687,23.3738638 61.8866503,26.5274235 62.3197047,26.983867 C63.0844595,27.7899222 63.1135768,27.8053326 63.3332971,27.5202414 C64.8310882,25.5768099 64.8685656,25.5389452 65.2940163,25.5389452 C65.7412819,25.5389452 66.4455637,26.3493498 73.3611361,34.821684 C74.5965303,36.3351714 75.6993224,37.5734804 75.8117945,37.5734804 C76.6226757,37.5734804 77.4883449,33.2843001 77.4898115,29.2592879 C77.4925787,21.7004188 74.1724171,14.4863103 68.4135299,9.53814141 C64.6221048,6.2804602 60.79727,4.3288421 56.1672576,3.28950109 C54.1006185,2.82558358 50.7696155,2.66533578 48.639687,2.92736651 C39.0703116,4.10461804 30.3937518,10.8633798 26.8657259,19.8885822 C25.9391472,22.2589021 25.147289,25.7611006 25.0572253,27.8871469 C25.0257989,28.628983 24.993324,28.6975793 24.656123,28.7343403 C24.3855105,28.7638265 24.0438974,28.554468 23.3544798,27.936551 L22.4197409,27.0987589 L22.5176789,26.14282 C23.0133524,21.3047711 25.0083685,16.2608423 28.1149131,11.9915369 C32.8311829,5.51000002 40.5079496,1.01311202 48.3158179,0.158274098 C54.6459789,-0.5347779 61.3243361,1.06924844 66.6302418,4.55708817 C68.674903,5.90114458 69.6099709,6.64774765 71.3053722,8.28993009 C74.8557418,11.72885 77.3394961,15.7228439 78.8922104,20.4899296 C79.9658299,23.7861179 80.2791682,25.7945655 80.2791682,29.3800954 C80.2791682,37.5431209 77.5294534,44.1390272 71.6935546,49.9749261 C67.6196425,54.0488382 62.9960377,56.4553348 56.7237638,57.7664248 C55.3150064,58.0608938 54.4193314,58.1459734 52.2475011,58.1916141 C50.7541929,58.2229944 48.9780995,58.1860797 48.300632,58.1095845 L48.300632,58.1094461 Z M71.3266798,45.6085989 C71.5958748,45.2655406 71.8711516,44.9119822 71.9384073,44.8229177 C72.0232472,44.7105625 71.5853932,44.5829814 70.5084193,44.4062483 C67.1158948,43.8495208 64.4557826,42.5769137 60.42063,39.5802123 C58.6310664,38.2511938 58.856069,38.6181271 57.4381367,34.7163667 C56.9091428,33.2607234 55.9579236,30.684544 55.3243104,28.9915225 C54.6906972,27.2984967 54.1986364,25.8869475 54.2308407,25.8547494 C54.2630419,25.8225451 55.3324491,26.820023 56.6072977,28.0713669 C60.2216054,31.6190339 62.6462673,33.6810517 62.9023858,33.4249364 C62.9507291,33.376593 62.8137855,33.0127652 62.5980716,32.6164288 C62.2120599,31.9071936 58.901067,27.3551276 56.6827443,24.4838291 C54.0132512,21.0285565 52.1358868,18.6468286 51.6050051,18.0419355 L51.0358927,17.3934771 L51.1247973,19.0481692 C51.1736971,19.9582546 51.2839769,20.8341747 51.3698714,20.9946642 C51.4959059,21.2301638 51.4113213,21.5312587 50.9314917,22.5551974 C50.6044894,23.2529978 50.3643194,23.8513044 50.3977781,23.8847662 C50.4312399,23.918228 50.7377341,23.7694039 51.0788799,23.5540528 C51.5398402,23.2630582 51.7279065,23.2090421 51.8111475,23.3437318 C51.9306975,23.5371666 54.1178521,30.1789085 54.8933437,32.7034516 C55.1491823,33.5363077 55.3138626,34.2623768 55.2593053,34.3169371 C55.204745,34.3714944 54.6218211,33.8221522 53.9639179,33.0961754 C53.3060146,32.3701985 52.0397782,31.015651 51.150062,30.0860683 C50.2603457,29.1564857 49.0804005,27.9181767 48.5279682,27.3342689 C47.9755329,26.7503598 47.5020156,26.2726179 47.4757025,26.2726179 C47.4493831,26.2726179 47.4661402,26.9144713 47.5129554,27.6989576 L47.5980535,29.1252991 L48.3879869,30.0564652 L49.1779234,30.9876344 L48.8976103,31.4553098 C48.0665744,32.8418187 47.3840952,34.0793191 47.4279187,34.1202094 C47.4553142,34.14576 48.092534,33.9836717 48.8439816,33.7600097 L50.2102468,33.3533423 L50.7620948,34.105786 C51.0656126,34.5196328 51.964968,35.8158597 52.7606634,36.9862919 C54.438293,39.4540086 55.9169995,41.437665 56.0097598,41.3448986 C56.0452693,41.3093921 56.0079149,41.1232074 55.9265649,40.9311593 C55.6945981,40.3829671 55.0050871,37.7020915 55.0774499,37.6297287 C55.1132115,37.593967 55.9935869,38.2776638 57.0338368,39.1490549 C62.0151446,43.3217721 65.9154445,45.5197957 69.4187345,46.1286054 C70.5589179,46.3267475 70.8187137,46.2559436 71.3266798,45.6085989 L71.3266798,45.6085989 Z M72.9293608,38.9412122 C71.2890948,36.5250303 65.7407161,29.648159 65.4315686,29.648159 C65.2672573,29.648159 65.3696321,30.2778766 65.84754,32.2067943 L66.2087513,33.6647097 L65.6197179,34.5183046 C65.2957565,34.9877817 65.0606997,35.3719025 65.0973715,35.3719025 C65.1340495,35.3719025 65.4947965,35.2123477 65.8990318,35.0173387 L66.6340083,34.6627749 L67.2814422,35.1274094 C67.637531,35.382959 68.9080135,36.3533428 70.1047404,37.283811 C72.9364664,39.485518 73.2978836,39.7534709 73.3587778,39.6963401 C73.3867267,39.6701131 73.1935011,39.3303016 72.9293608,38.9412122 L72.9293608,38.9412122 Z M32.9849019,23.765908 C32.6469691,23.5690788 32.6536904,22.8631274 32.9964627,22.5529283 C33.5453713,22.0561725 34.3791498,22.3964574 34.3791498,23.1172319 C34.3791498,23.7919229 33.6288768,24.1409892 32.9849049,23.765908 L32.9849019,23.765908 Z M68.3263349,23.5982453 C68.025572,23.1688467 68.0377416,22.8502352 68.3662597,22.5529283 C68.882798,22.0854651 69.8590206,22.4167104 69.8590206,23.0594431 C69.8590206,23.4841682 69.4108264,23.9244266 68.9784454,23.9244266 C68.7070365,23.9244266 68.4727023,23.8072134 68.3263349,23.5982453 L68.3263349,23.5982453 Z M29.3525272,20.4021227 C29.1910907,20.2406831 29.0590021,19.9765121 29.0590021,19.8150726 C29.0590021,19.653633 29.1910907,19.3894601 29.3525272,19.2280221 C29.6328158,18.9477333 29.8417346,18.9344967 33.9851993,18.9344967 C36.6956226,18.9344967 38.4309026,18.9915233 38.608223,19.0864226 C38.9856901,19.2884373 38.9803217,20.0203787 38.5985684,20.4021227 C38.3183106,20.6823805 38.109361,20.6956478 33.9755448,20.6956478 C29.8417316,20.6956478 29.6327789,20.6823959 29.3525211,20.4021227 L29.3525272,20.4021227 Z M63.7007069,20.3744505 C63.3225541,19.9685548 63.3207308,19.6022826 63.694988,19.2280221 C63.9758576,18.9471503 64.1841954,18.9344967 68.5276716,18.9344967 C73.5135146,18.9344967 73.5280855,18.9370795 73.5280855,19.8172341 C73.5280855,20.6640338 73.3448895,20.6956478 68.4378323,20.6956478 C64.0614908,20.6956478 63.995797,20.6911895 63.7007038,20.3744505 L63.7007069,20.3744505 Z M31.1243345,17.0801707 C30.737714,16.5886668 30.7423999,16.5039474 31.1803922,16.0659539 L31.5406257,15.7057191 L36.6513348,15.7057191 C42.1688867,15.7057191 42.4173614,15.7393101 42.4122313,16.4845437 C42.4055761,17.4279858 42.1711712,17.4668699 36.4908177,17.4668699 L31.4285103,17.4668699 L31.1243345,17.0801707 Z M60.1726872,17.1733448 C60.0112476,17.0119052 59.8791621,16.7477339 59.8791621,16.5862931 C59.8791621,16.4248551 60.0112476,16.1606825 60.1726872,15.9992442 C60.4555031,15.7164286 60.6603142,15.7057997 65.7863568,15.7079655 C68.7124357,15.7090724 71.1791685,15.7587329 71.2679871,15.8180372 C71.841115,16.2007266 71.7980663,16.989266 71.1861696,17.3167433 C71.0100515,17.4109982 68.9630504,17.4668699 65.6859344,17.4668699 C60.6618915,17.4668699 60.4552048,17.4558717 60.1726872,17.1733448 L60.1726872,17.1733448 Z M33.3968209,13.7651481 C33.0692775,13.297512 33.1134699,12.9817059 33.5550535,12.634356 C33.9296058,12.3397324 34.1037777,12.3301775 39.0993828,12.3301775 C44.7795948,12.3301775 44.9093682,12.3495234 44.9093682,13.196329 C44.9093682,14.0917263 44.9121354,14.0913297 38.9989389,14.0913297 L33.6252886,14.0913297 L33.3968209,13.7651481 Z M57.7738465,13.822939 C57.4472562,13.4620598 57.4675861,12.9805994 57.8244835,12.6237025 C58.1072533,12.3409321 58.313691,12.3301775 63.4585875,12.3301775 C68.3940887,12.3301775 68.824053,12.350332 69.1272941,12.5958809 C69.4910204,12.8904089 69.5627498,13.5208195 69.2723456,13.8707322 C69.1153612,14.0598852 68.3001231,14.0913297 63.553002,14.0913297 C58.3759472,14.0913297 58.0009768,14.0739239 57.7738465,13.822939 L57.7738465,13.822939 Z M50.2662061,10.7379784 C49.5797697,10.412091 48.955067,9.78559843 48.734535,9.20191508 C48.2759699,7.98821774 48.9006511,6.39654873 50.0754648,5.78529434 C50.5779641,5.52384257 51.675025,5.51992542 52.2911985,5.77738932 C52.9180228,6.03929338 53.6597913,6.9013648 53.87426,7.61719394 C54.4719178,9.61199787 52.1410585,11.6280783 50.2662061,10.7379907 L50.2662061,10.7379784 Z"/>
</svg>