<?xml version="1.0" encoding="UTF-8" standalone="no"?>
<!-- Created with Inkscape (http://www.inkscape.org/) -->

<svg
   width="191.18755mm"
   height="60.132832mm"
   viewBox="0 0 191.18755 60.132832"
   version="1.1"
   id="svg1"
   xml:space="preserve"
   xmlns:inkscape="http://www.inkscape.org/namespaces/inkscape"
   xmlns:sodipodi="http://sodipodi.sourceforge.net/DTD/sodipodi-0.dtd"
   xmlns="http://www.w3.org/2000/svg"
   xmlns:svg="http://www.w3.org/2000/svg"><sodipodi:namedview
     id="namedview1"
     pagecolor="#ffffff"
     bordercolor="#000000"
     borderopacity="0.25"
     inkscape:showpageshadow="2"
     inkscape:pageopacity="0.0"
     inkscape:pagecheckerboard="0"
     inkscape:deskcolor="#d1d1d1"
     inkscape:document-units="mm"
     inkscape:zoom="1.654314"
     inkscape:cx="396.53899"
     inkscape:cy="367.82619"
     inkscape:window-width="3055"
     inkscape:window-height="1905"
     inkscape:window-x="3973"
     inkscape:window-y="147"
     inkscape:window-maximized="0"
     inkscape:current-layer="layer1" /><defs
     id="defs1" /><g
     inkscape:label="Layer 1"
     inkscape:groupmode="layer"
     id="layer1"
     transform="translate(-9.3270167,-10.968508)"><path
       style="fill:#000000"
       d="m 148.02228,70.920764 c -3.04941,-0.397883 -5.18089,-1.387805 -6.79803,-3.157215 -1.11883,-1.224178 -2.04749,-2.909409 -1.76582,-3.204434 0.19292,-0.202076 4.03932,-0.786001 5.22067,-0.792553 0.61541,-0.0034 0.87958,0.145149 1.38546,0.779158 0.88196,1.105348 2.08887,1.596059 3.93737,1.600872 1.83118,0.0048 2.93299,-0.520556 2.93299,-1.398395 0,-0.803712 -0.60527,-1.084449 -4.4538,-2.065761 -1.91187,-0.487497 -4.08307,-1.181304 -4.82488,-1.541795 -2.85758,-1.388668 -4.10906,-4.107328 -3.2321,-7.021253 1.15812,-3.848125 6.84246,-5.854007 12.28698,-4.335808 1.63559,0.456081 2.563,0.969913 3.64646,2.020313 0.74576,0.723008 2.00881,2.693784 2.00881,3.134411 0,0.110919 -3.53663,0.92385 -4.94264,1.136115 -0.60813,0.09181 -0.92335,0.05833 -0.92335,-0.09807 0,-0.130606 -0.29824,-0.577145 -0.66276,-0.992308 -1.68106,-1.914623 -6.40444,-1.333708 -5.75644,0.707968 0.19584,0.617031 1.25573,1.054472 4.53576,1.872006 3.2923,0.82059 5.6741,1.803154 6.52537,2.691909 1.92463,2.009374 1.73576,5.641482 -0.41792,8.036889 -1.19838,1.332882 -2.69961,2.100075 -4.95308,2.531236 -1.84103,0.352247 -1.79893,0.351161 -3.74905,0.09671 z M 87.992587,70.586829 c -1.704904,-0.458385 -3.241731,-1.415043 -4.657302,-2.899122 -1.534787,-1.609063 -2.43556,-3.475565 -2.771755,-5.743385 -0.911768,-6.150371 2.845267,-11.416256 8.806323,-12.343001 4.830498,-0.75098 9.256567,1.623498 11.402767,6.117304 l 0.78065,1.63458 v 3.041619 c 0,2.971503 -0.016,3.075468 -0.69554,4.509967 -1.228258,2.592955 -3.722886,4.786882 -6.38512,5.615463 -1.60838,0.500583 -4.745892,0.532818 -6.480023,0.06658 z m 4.931637,-5.20607 c 1.026218,-0.428022 2.128444,-1.481439 2.716381,-2.596091 0.667832,-1.266125 0.652316,-3.754332 -0.03217,-5.159309 -1.300753,-2.669917 -4.342023,-3.67104 -7.023771,-2.312081 -1.995632,1.011275 -3.071164,4.120664 -2.338207,6.759813 0.322048,1.159595 1.465556,2.552538 2.577051,3.139186 1.1415,0.602486 2.888108,0.674247 4.100719,0.168482 z M 53.973337,70.449962 C 53.831042,70.056126 50.005772,57.906 49.405433,55.941024 c -1.15485,-3.779951 -2.574769,-8.248243 -3.05912,-9.626638 -0.285922,-0.813694 -0.519859,-1.571383 -0.519859,-1.683754 0,-0.118683 1.394782,-0.20431 3.32801,-0.20431 h 3.32801 l 1.767196,6.354812 c 0.971958,3.495147 1.876054,6.780188 2.009104,7.300091 0.282595,1.104268 0.449112,1.026177 0.779968,-0.365776 0.132563,-0.557711 0.802577,-3.01823 1.488919,-5.46782 0.686343,-2.44959 1.385167,-5.023591 1.552942,-5.720003 0.537958,-2.232982 0.279862,-2.101304 4.118662,-2.101304 2.501858,0 3.38915,0.06976 3.454147,0.271573 0.478488,1.485677 3.384404,12.683121 3.495688,13.470029 0.08027,0.567588 0.224506,1.031978 0.320529,1.031978 0.09602,0 0.276567,-0.475514 0.401209,-1.056698 0.124641,-0.581185 0.626704,-2.36542 1.115693,-3.964969 1.455382,-4.76074 1.984516,-6.535618 2.323843,-7.794885 0.562398,-2.087101 0.292214,-1.957028 4.065089,-1.957028 h 3.334783 l -0.615286,1.901012 c -0.338408,1.045557 -1.528554,4.589587 -2.64477,7.875622 -1.116216,3.286035 -2.794436,8.345443 -3.729378,11.243129 l -1.699895,5.268519 H 71.485323 68.94973 l -0.584273,-2.009641 c -0.32135,-1.105303 -0.873983,-3.085071 -1.228074,-4.399485 -0.354092,-1.314414 -1.004438,-3.660807 -1.445215,-5.214205 -0.440776,-1.553399 -0.960252,-3.435082 -1.154389,-4.181519 -0.384701,-1.479136 -0.600067,-1.68402 -0.800047,-0.761113 -0.122642,0.565991 -2.032697,7.470549 -3.771384,13.632973 l -0.796874,2.824361 -2.547757,0.06124 c -1.919533,0.04614 -2.572568,-0.0074 -2.64838,-0.217258 z m 50.395183,-0.0069 c -0.0573,-0.149365 -0.0786,-4.817708 -0.0475,-10.374095 l 0.0566,-10.102521 2.98731,-0.06045 2.9873,-0.06045 v 1.092424 c 0,0.600833 0.0578,1.092424 0.12841,1.092424 0.0706,0 0.51436,-0.330362 0.98609,-0.734138 0.50715,-0.43411 1.37912,-0.88045 2.13361,-1.092149 1.17414,-0.329446 1.40905,-0.330517 2.94423,-0.01342 2.46604,0.509374 2.77394,0.65674 2.59585,1.242411 -0.21268,0.699464 -1.67441,4.148572 -1.84674,4.357598 -0.0796,0.09655 -0.56845,-0.04532 -1.08633,-0.315258 -2.03465,-1.060516 -4.47248,-0.325819 -5.50988,1.660528 -0.42527,0.814277 -0.45787,1.269443 -0.51745,7.223846 l -0.0636,6.354812 h -2.82191 c -2.05717,0 -2.85013,-0.0736 -2.92602,-0.271573 z m 16.12863,0.132909 c -0.0831,-0.08306 -0.15101,-6.440648 -0.15101,-14.127979 V 42.470995 h 2.9301 2.9301 l 0.0572,7.332476 0.0572,7.332475 0.52488,-0.844376 c 0.6501,-1.045827 3.24586,-4.269807 4.43667,-5.510436 l 0.88627,-0.923349 h 3.75679 c 2.06623,0 3.75309,0.07332 3.74857,0.162944 -0.005,0.08962 -0.44546,0.505126 -0.97985,0.923349 -0.5344,0.418223 -2.254,2.045094 -3.82134,3.61527 l -2.84971,2.854864 2.23733,3.337004 c 2.49594,3.722727 3.24716,4.77968 5.57589,7.845118 l 1.60919,2.11827 h -3.88959 c -3.43545,0 -3.92763,-0.04439 -4.21532,-0.380202 -0.17915,-0.209111 -1.32585,-2.04223 -2.54823,-4.073598 -1.22238,-2.031367 -2.35701,-3.831646 -2.5214,-4.000619 -0.3538,-0.36365 -0.699,-0.143196 -1.47146,0.939704 -0.42987,0.602626 -0.48977,1.014539 -0.58732,4.038579 l -0.10863,3.367507 -2.72766,0.06049 c -1.50022,0.03327 -2.79562,-0.0075 -2.87868,-0.09052 z m 40.69371,-18.779802 c -1.36009,-0.567005 -2.1727,-1.85049 -2.1727,-3.431704 0,-3.165364 4.40606,-4.248657 6.08441,-1.495939 0.88258,1.447538 0.40073,3.458487 -1.08746,4.538395 -0.67763,0.491723 -2.10617,0.688608 -2.82425,0.389248 z M 88.383614,39.245827 c -2.709293,-0.895487 -5.207212,-2.927084 -6.242484,-5.077109 -1.469682,-3.052199 -1.46278,-6.843884 0.01811,-9.94744 0.256576,-0.537714 1.07604,-1.590395 1.821031,-2.33929 1.695533,-1.704415 3.444311,-2.563692 5.886435,-2.892351 4.831465,-0.650214 8.974707,1.475638 10.959254,5.623073 0.61575,1.286831 0.70757,1.723501 0.79331,3.772799 l 0.097,2.317533 -7.287456,0.07231 c -4.008104,0.03977 -7.355576,0.140533 -7.438826,0.223915 -0.27157,0.271999 0.770916,2.080713 1.535288,2.663727 1.708771,1.303343 3.808752,1.473678 5.65811,0.458942 0.826197,-0.453331 1.086064,-0.479298 3.856339,-0.385344 1.633744,0.05541 2.970445,0.140768 2.970445,0.189687 0,0.04892 -0.19474,0.470665 -0.43276,0.937215 -0.696774,1.365795 -2.442719,2.939223 -4.25582,3.835307 -1.584298,0.783002 -1.758195,0.819719 -4.185237,0.883678 -2.01645,0.05314 -2.780855,-0.01544 -3.752697,-0.336653 z M 96.01318,26.577315 c 0,-0.478998 -1.105846,-1.697404 -2.034594,-2.241686 -2.024492,-1.186431 -4.082505,-0.92859 -5.79977,0.726633 -1.81115,1.745717 -1.772097,1.766119 3.380564,1.766119 3.22418,0 4.4538,-0.06931 4.4538,-0.251066 z m 37.20122,12.732482 c -1.46616,-0.394726 -2.18768,-0.776805 -2.91716,-1.544779 -1.25329,-1.319426 -1.34399,-1.835426 -1.4356,-8.166591 l -0.0841,-5.811666 h -2.26038 -2.26038 v -2.172585 -2.172585 h 2.27596 2.27597 l 0.0596,-3.639081 0.0596,-3.63908 h 2.82436 2.82436 l 0.10863,3.584766 0.10863,3.584765 2.75529,0.0607 2.75529,0.06069 0.0691,2.076634 c 0.038,1.142149 0.0283,2.116941 -0.0214,2.166205 -0.0498,0.04926 -1.34519,0.08957 -2.87868,0.08957 h -2.78815 v 4.948605 c 0,5.81556 0.0287,5.914322 1.71826,5.914322 1.28175,0 2.26479,-0.616329 2.94549,-1.846698 0.30031,-0.542811 0.63659,-0.869034 0.89583,-0.869034 0.38625,0 0.41921,0.214183 0.47527,3.088499 l 0.0602,3.088498 -0.82064,0.414069 c -1.1179,0.564062 -3.46536,1.124689 -4.63654,1.107314 -0.53008,-0.0079 -1.479,-0.153006 -2.1087,-0.322539 z m 53.88653,-0.192031 c -3.47994,-1.126992 -5.71316,-3.374497 -6.70637,-6.749293 -0.52329,-1.77806 -0.5171,-4.829182 0.013,-6.409126 1.63482,-4.87255 6.46073,-7.756175 11.70703,-6.9953 5.12375,0.743102 8.39997,4.796439 8.39997,10.392461 v 1.382526 h -7.27817 c -7.1921,0 -7.27816,0.0053 -7.27816,0.445307 0,1.277559 1.75868,3.053335 3.41822,3.451453 1.17931,0.282911 2.35335,0.09077 3.64269,-0.596165 0.52513,-0.279779 1.22167,-0.334486 3.58476,-0.281546 1.61315,0.03614 2.97059,0.10175 3.01655,0.145802 0.046,0.04405 -0.0431,0.385994 -0.19801,0.75987 -0.41526,1.002526 -2.77155,3.290641 -3.96701,3.852234 -2.65324,1.246416 -5.6888,1.465069 -8.35449,0.601777 z m 7.76489,-12.62099 c 0,-0.491345 -1.80492,-2.206824 -2.72743,-2.592274 -1.81953,-0.760249 -3.93102,-0.221211 -5.36545,1.369737 -1.40367,1.556828 -1.40996,1.554142 3.63908,1.554142 3.84823,0 4.4538,-0.04509 4.4538,-0.331605 z M 43.43661,38.95673 c -1.576626,-0.593754 -3.26706,-1.875583 -4.324335,-3.279074 -3.729376,-4.9506 -2.212405,-12.994758 2.971613,-15.757811 1.721243,-0.917413 3.791168,-1.278493 5.503543,-0.960043 1.411066,0.262415 3.30232,1.314671 3.700658,2.058974 0.477342,0.89192 0.614973,-0.196702 0.618278,-4.890378 l 0.0033,-4.725373 h 2.934598 2.934599 l -0.05592,13.850231 -0.05592,13.850232 -2.878675,0.06062 -2.878676,0.06062 V 38.13213 c 0,-0.600929 -0.07859,-1.092598 -0.17464,-1.092598 -0.09605,0 -0.506526,0.342419 -0.912164,0.760932 -1.53992,1.588794 -4.858369,2.108272 -7.38628,1.156266 z m 6.913287,-5.257687 c 1.318441,-0.913681 1.668426,-1.808045 1.668426,-4.26356 0,-1.790296 -0.07407,-2.207987 -0.558614,-3.150248 -0.806404,-1.568151 -2.196305,-2.391221 -4.028972,-2.385872 -1.158553,0.0034 -1.499224,0.101192 -2.291242,0.657843 -0.51169,0.359629 -1.226008,1.074548 -1.587375,1.58871 -0.56827,0.80855 -0.667394,1.163081 -0.733755,2.624373 -0.05825,1.282736 0.01311,1.867002 0.296408,2.426601 0.68969,1.362373 1.389117,2.100853 2.542662,2.684633 1.555026,0.786959 3.396919,0.715331 4.692462,-0.18248 z m 96.993753,5.270483 c -1.35919,-0.522434 -2.83337,-1.924406 -3.55797,-3.383707 -0.51707,-1.04134 -0.51876,-1.069656 -0.51876,-8.648809 v -7.604049 h 2.82436 2.82436 l 0.10863,6.409127 c 0.10066,5.93917 0.14103,6.464884 0.55053,7.169532 0.94317,1.62294 3.28934,1.983232 5.10222,0.783528 1.50806,-0.997987 1.578,-1.361187 1.53277,-7.958954 -0.0217,-3.169785 0.0251,-5.931684 0.10412,-6.137553 0.12604,-0.328457 0.50007,-0.374309 3.05338,-0.374309 h 2.90975 v 10.000024 10.000023 l -2.98731,-0.06045 -2.9873,-0.06045 -0.0652,-1.249237 c -0.0358,-0.68708 -0.0922,-1.249236 -0.12531,-1.249236 -0.0331,0 -0.54147,0.442006 -1.12976,0.982236 -0.58829,0.54023 -1.58656,1.175711 -2.21837,1.41218 -1.53398,0.574122 -3.88241,0.561165 -5.42018,-0.0299 z M 9.327017,39.12274 c 0,-0.04916 0.3477217,-0.901777 0.772715,-1.89471 0.793941,-1.854925 5.500493,-14.33247 7.159803,-18.981361 0.511798,-1.433906 1.035098,-2.851518 1.162888,-3.150249 0.12779,-0.29873 0.535983,-1.349719 0.907096,-2.335529 l 0.67475,-1.792383 h 3.634108 3.634108 l 1.222071,3.421822 c 0.672138,1.882002 1.807014,5.08385 2.521946,7.115217 2.959891,8.410071 6.422386,16.679184 7.180099,17.147476 0.734915,0.454202 -0.0058,0.565524 -3.393834,0.510033 l -3.636897,-0.05957 -0.901241,-2.498473 -0.90124,-2.498473 -5.759727,-0.05782 -5.759726,-0.05782 -0.920538,2.61061 -0.920538,2.610609 h -3.337921 c -1.835857,0 -3.337922,-0.04022 -3.337922,-0.08938 z M 27.357008,28.850867 c 0.138306,-0.128236 -3.536065,-10.930086 -3.717993,-10.930086 -0.153278,0 -0.139761,-0.03702 -2.329926,6.380695 -0.851022,2.493699 -1.50478,4.602815 -1.452797,4.686926 0.100304,0.162296 7.320121,0.02991 7.500716,-0.137535 z m 38.298068,10.089677 c -0.116804,-0.149365 -0.727944,-1.689185 -1.358089,-3.421822 -1.065304,-2.929143 -1.608798,-4.456751 -4.550326,-12.789677 -0.606074,-1.71692 -1.101952,-3.207857 -1.101952,-3.313193 0,-0.105336 1.405641,-0.19152 3.123647,-0.19152 3.410678,0 3.451935,0.01446 3.71834,1.303551 0.160467,0.776471 4.0011,12.646159 4.137581,12.787422 0.145591,0.150692 0.57241,-0.996096 3.865134,-10.384938 0.832625,-2.374138 1.295882,-3.401731 1.584704,-3.515181 0.588677,-0.231232 6.165484,-0.227925 6.165484,0.0037 0,0.10698 -0.284996,0.864669 -0.633324,1.683753 -0.348327,0.819085 -1.757649,4.471118 -3.131826,8.11563 -1.374176,3.644512 -2.799757,7.359632 -3.167956,8.255824 -0.3682,0.896191 -0.669789,1.65388 -0.670199,1.683754 -4.1e-4,0.02987 -1.748568,0.05431 -3.884797,0.05431 -2.849138,0 -3.940638,-0.07236 -4.096421,-0.271573 z m 38.713394,0 c -0.0573,-0.149365 -0.0787,-4.622175 -0.0475,-9.939578 l 0.0567,-9.668005 2.98731,-0.06045 2.9873,-0.06045 v 0.983795 c 0,0.541087 0.0554,0.983794 0.12313,0.983794 0.0677,0 0.43973,-0.241483 0.82668,-0.536628 1.42228,-1.084827 2.72353,-1.511041 4.59029,-1.503513 3.35696,0.01354 5.65387,1.41026 6.65075,4.044234 0.50565,1.33605 0.51604,1.509487 0.51739,8.641575 l 0.001,7.278161 -2.87868,0.06062 -2.87867,0.06062 -0.005,-6.252489 c -0.004,-5.695529 -0.0419,-6.334339 -0.42189,-7.171349 -1.01416,-2.234088 -4.17863,-2.436013 -6.0911,-0.388673 l -0.54314,0.581451 -0.0687,6.609224 -0.0687,6.609224 h -2.81685 c -2.05308,0 -2.84508,-0.07363 -2.921,-0.271573 z m 62.03648,-9.72845 V 19.21207 l 2.98731,0.06045 2.9873,0.06045 0.0667,1.043616 0.0667,1.043615 0.7913,-0.694773 c 1.24121,-1.089793 2.54939,-1.575902 4.28952,-1.593946 1.69197,-0.01754 3.96778,0.574892 4.16304,1.083717 0.13241,0.345074 -1.84104,4.657864 -2.13136,4.657864 -0.096,0 -0.49459,-0.195167 -0.88582,-0.433705 -1.40567,-0.857034 -3.97554,-0.34484 -5.1858,1.033564 -1.24048,1.412835 -1.2829,1.676499 -1.2829,7.974875 v 5.764329 h -2.93299 -2.93299 z"
       id="path1" /></g></svg>
