<svg width="20" height="20" viewBox="0 0 20 20" fill="none" xmlns="http://www.w3.org/2000/svg">
    <g id="trash">
        <path id="Vector" d="M2.5 5H4.16667H17.5" stroke="#444444" stroke-width="1.5" stroke-linecap="round"
              stroke-linejoin="round"/>
        <path id="Vector_2"
              d="M16.6666 5.00002L15 16.6667C15 17.1087 14.8244 17.5326 14.5118 17.8452C14.1993 18.1578 13.7753 18.3334 13.3333 18.3334H6.66665C6.22462 18.3334 5.8007 18.1578 5.48813 17.8452C5.17557 17.5326 4.99998 17.1087 4.99998 16.6667L3.33331 5.00002M6.66665 5.00002V3.33335C6.66665 2.89133 6.84224 2.4674 7.1548 2.15484C7.46736 1.84228 7.89129 1.66669 8.33331 1.66669H11.6666C12.1087 1.66669 12.5326 1.84228 12.8452 2.15484C13.1577 2.4674 13.3333 2.89133 13.3333 3.33335V5.00002"
              stroke="#444444" stroke-width="1.5" stroke-linecap="round" stroke-linejoin="round"/>
    </g>
</svg>
