<svg width="24" height="24" viewBox="0 0 24 24" fill="none" xmlns="http://www.w3.org/2000/svg">
    <g id="x">
        <rect width="24" height="24" rx="12" fill="#F9F9F9"/>
        <path id="Union" fill-rule="evenodd" clip-rule="evenodd"
              d="M16.7014 8.78033C16.9943 8.48744 16.9943 8.01256 16.7014 7.71967C16.4085 7.42678 15.9336 7.42678 15.6407 7.71967L11.9605 11.3999L8.28033 7.71967C7.98744 7.42678 7.51256 7.42678 7.21967 7.71967C6.92678 8.01256 6.92678 8.48744 7.21967 8.78033L10.8999 12.4605L7.21967 16.1407C6.92678 16.4336 6.92678 16.9085 7.21967 17.2014C7.51256 17.4943 7.98744 17.4943 8.28033 17.2014L11.9605 13.5212L15.6407 17.2014C15.9336 17.4943 16.4085 17.4943 16.7014 17.2014C16.9943 16.9085 16.9943 16.4336 16.7014 16.1407L13.0212 12.4605L16.7014 8.78033Z"
              fill="#B4B4B4"/>
    </g>
</svg>
