<svg width="100" height="64" viewBox="0 0 100 64" fill="none" xmlns="http://www.w3.org/2000/svg">
<g id="Payment Icons">
<rect x="0.5" y="0.5" width="99" height="63" rx="3.5" fill="white"/>
<path id="ApplePay" fill-rule="evenodd" clip-rule="evenodd" d="M28.3052 22.2484C27.516 23.1868 26.2531 23.927 24.9902 23.8212C24.8324 22.5524 25.4507 21.2043 26.1742 20.3717C26.9635 19.4068 28.3447 18.7196 29.4629 18.6667C29.5944 19.9884 29.0814 21.2836 28.3052 22.2484ZM29.4496 24.0724C28.3371 24.008 27.3219 24.4085 26.5019 24.732C25.9743 24.9402 25.5274 25.1165 25.1875 25.1165C24.806 25.1165 24.3407 24.9308 23.8183 24.7223C23.1337 24.449 22.3511 24.1367 21.5304 24.1517C19.6493 24.1781 17.8997 25.2486 16.9394 26.9536C14.9662 30.3635 16.4264 35.4124 18.3338 38.1879C19.2678 39.5624 20.386 41.0692 21.8593 41.0163C22.5075 40.9917 22.9737 40.7929 23.4563 40.5872C24.0118 40.3504 24.5889 40.1043 25.49 40.1043C26.3599 40.1043 26.9118 40.344 27.4415 40.574C27.9452 40.7927 28.4289 41.0027 29.147 40.9899C30.673 40.9634 31.6333 39.6153 32.5673 38.2408C33.5752 36.7655 34.0181 35.3257 34.0854 35.1072L34.0932 35.0819C34.0916 35.0803 34.0792 35.0746 34.0572 35.0645C33.7203 34.9095 31.145 33.725 31.1203 30.5486C31.0955 27.8825 33.1629 26.5316 33.4884 26.319L33.4884 26.319L33.4886 26.3189C33.5083 26.306 33.5216 26.2973 33.5276 26.2928C32.2121 24.3367 30.16 24.1252 29.4496 24.0724ZM40.013 40.8445V20.2395H47.7085C51.6813 20.2395 54.4569 22.9886 54.4569 27.0065C54.4569 31.0244 51.6287 33.7999 47.6033 33.7999H43.1965V40.8445H40.013ZM43.1962 22.9357H46.8664C49.6289 22.9357 51.2074 24.416 51.2074 27.0197C51.2074 29.6234 49.6289 31.1169 46.8532 31.1169H43.1962V22.9357ZM64.9677 38.3729C64.1258 39.9854 62.271 41.0031 60.2715 41.0031C57.3117 41.0031 55.2464 39.232 55.2464 36.5622C55.2464 33.9189 57.2459 32.3989 60.9424 32.1743L64.9151 31.9364V30.7997C64.9151 29.1212 63.8233 28.2092 61.8764 28.2092C60.2715 28.2092 59.1007 29.0419 58.8639 30.3107H55.9962C56.0883 27.6409 58.5877 25.698 61.9684 25.698C65.6123 25.698 67.9802 27.6145 67.9802 30.5882V40.8445H65.0335V38.3729H64.9677ZM61.1263 38.558C59.4294 38.558 58.3507 37.7385 58.3507 36.4829C58.3507 35.1877 59.3899 34.4343 61.3763 34.3154L64.9149 34.0907V35.2538C64.9149 37.1834 63.2837 38.558 61.1263 38.558ZM77.754 41.6507C76.478 45.2589 75.0178 46.4484 71.9133 46.4484C71.6765 46.4484 70.8872 46.422 70.7031 46.3691V43.8976C70.9004 43.924 71.3871 43.9504 71.6371 43.9504C73.0446 43.9504 73.8339 43.3557 74.3206 41.8093L74.6101 40.8974L69.2166 25.8963H72.5448L76.2939 38.069H76.3596L80.1087 25.8963H83.3448L77.754 41.6507Z" fill="black"/>
<rect x="0.5" y="0.5" width="99" height="63" rx="3.5" stroke="#A3A3A3"/>
</g>
</svg>
