<svg width="100" height="64" viewBox="0 0 100 64" fill="none" xmlns="http://www.w3.org/2000/svg">
<g id="Payment Icons">
<rect x="0.5" y="0.5" width="99" height="63" rx="5.5" fill="white"/>
<g id="GooglePay">
<g id="Pay">
<path id="Union" fill-rule="evenodd" clip-rule="evenodd" d="M47.9328 39.859V32.0332H51.9805C53.6392 32.0332 55.0392 31.4786 56.1804 30.3849L56.4543 30.1076C58.5391 27.8431 58.4021 24.3153 56.1804 22.2203C55.0696 21.1111 53.5479 20.5103 51.9805 20.5411H45.4829V39.859H47.9328ZM47.9331 29.6607V22.9133H52.0424C52.9251 22.9133 53.7621 23.2522 54.3861 23.8684C55.7102 25.1625 55.7407 27.3191 54.4622 28.6594C53.8382 29.3218 52.9555 29.6915 52.0424 29.6607H47.9331ZM67.8823 27.6736C66.8324 26.703 65.402 26.2101 63.5912 26.2101C61.263 26.2101 59.513 27.0728 58.3565 28.7827L60.5173 30.1538C61.3086 28.983 62.389 28.3976 63.7585 28.3976C64.6259 28.3976 65.4628 28.7211 66.1172 29.3065C66.7563 29.8611 67.1215 30.6621 67.1215 31.5094V32.0794C66.178 31.5556 64.9911 31.2783 63.5303 31.2783C61.826 31.2783 60.4565 31.6789 59.4369 32.4953C58.4174 33.3118 57.9 34.3901 57.9 35.7612C57.8696 37.009 58.4022 38.1952 59.3456 38.9962C60.3043 39.8589 61.5217 40.2902 62.952 40.2902C64.6411 40.2902 65.9802 39.5354 66.9998 38.0257H67.1063V39.8589H69.4497V31.7097C69.4497 29.9997 68.9323 28.6441 67.8823 27.6736ZM61.2329 37.425C60.7307 37.0552 60.4263 36.4544 60.4263 35.8074C60.4263 35.0834 60.7611 34.4826 61.4156 34.005C62.0852 33.5275 62.9223 33.281 63.9115 33.281C65.2813 33.2656 66.3466 33.5737 67.1076 34.1899C67.1076 35.2374 66.6967 36.1463 65.8901 36.9166C65.1595 37.656 64.1703 38.072 63.1354 38.072C62.4505 38.0874 61.7808 37.8563 61.2329 37.425ZM74.7148 45.6666L82.9015 26.6414H80.2385L76.4495 36.1309H76.4039L72.5236 26.6414H69.8606L75.2322 39.0116L72.1888 45.6666H74.7148Z" fill="#3C4043"/>
</g>
<g id="G">
<path id="Blue" d="M39.4749 30.3387C39.4749 29.5839 39.414 28.829 39.2923 28.0896H28.96V32.3568H34.8794C34.6359 33.7278 33.8446 34.9602 32.6881 35.7305V38.5034H36.2184C38.288 36.5778 39.4749 33.7278 39.4749 30.3387Z" fill="#4285F4"/>
<path id="Green" d="M28.9605 41.1839C31.9126 41.1839 34.4082 40.198 36.219 38.5034L32.6887 35.7305C31.6996 36.4084 30.4366 36.7935 28.9605 36.7935C26.0997 36.7935 23.6802 34.8371 22.8129 32.2182H19.176V35.0835C21.0325 38.8269 24.8215 41.1839 28.9605 41.1839Z" fill="#34A853"/>
<path id="Yellow" d="M22.8131 32.2182C22.3565 30.8472 22.3565 29.3529 22.8131 27.9664V25.1165H19.1757C17.6081 28.2437 17.6081 31.9409 19.1757 35.0681L22.8131 32.2182Z" fill="#FBBC04"/>
<path id="Red" d="M28.9605 23.3911C30.5279 23.3603 32.0344 23.9611 33.1604 25.0548L36.2951 21.8814C34.3017 20.002 31.6844 18.9699 28.9605 19.0007C24.8215 19.0007 21.0325 21.373 19.176 25.1165L22.8129 27.9818C23.6802 25.3475 26.0997 23.3911 28.9605 23.3911Z" fill="#EA4335"/>
</g>
</g>
<rect x="0.5" y="0.5" width="99" height="63" rx="5.5" stroke="#A3A3A3"/>
</g>
</svg>
